<svg width="105" height="100" viewBox="0 0 105 100" fill="none" xmlns="http://www.w3.org/2000/svg">
    <g id="redux">
        <path d="M72.6971 69.5627C76.5688 69.1619 79.5061 65.8242 79.3725 61.8184C79.2393 57.8131 75.9012 54.6086 71.8959 54.6086H71.6291C67.4897 54.7422 64.2856 58.2135 64.4193 62.3525C64.5529 64.3553 65.3537 66.091 66.5553 67.2926C62.016 76.2385 55.0734 82.7807 44.6594 88.2549C37.5832 91.9934 30.2402 93.3287 22.8971 92.3943C16.8889 91.593 12.216 88.923 9.27827 84.5164C5.00614 77.9742 4.60573 70.8975 8.21065 63.8213C10.7475 58.7475 14.7525 55.009 17.2893 53.1398C16.7553 51.4041 15.9541 48.4668 15.5537 46.3307C-3.80574 60.35 -1.80287 79.3094 4.07172 88.2549C8.47745 94.9311 17.4229 99.0701 27.3029 99.0701C29.9729 99.0701 32.643 98.8029 35.3135 98.1357C52.4033 94.7975 65.3541 84.65 72.6971 69.5627ZM96.1955 53.0066C86.0483 41.1234 71.0951 34.5811 54.0053 34.5811H51.8693C50.6676 32.1779 48.1307 30.5754 45.327 30.5754H45.0598C40.9213 30.709 37.7172 34.1803 37.8504 38.3197C37.984 42.325 41.3217 45.5295 45.327 45.5295H45.5938C48.5311 45.3959 51.068 43.5266 52.1361 40.9898H54.5393C64.6865 40.9898 74.2992 43.927 82.9779 49.6684C89.6533 54.0746 94.4598 59.816 97.1299 66.7586C99.3996 72.3664 99.266 77.8406 96.8627 82.5139C93.1246 89.5902 86.8496 93.4623 78.5717 93.4623C73.2311 93.4623 68.1578 91.8598 65.4873 90.6582C64.0188 91.9934 61.3484 94.1295 59.4791 95.4652C65.2205 98.1352 71.0951 99.6041 76.7025 99.6041C89.5197 99.6041 98.9992 92.5275 102.604 85.4512C106.476 77.707 106.209 64.3553 96.1955 53.0066ZM28.3709 71.832C28.5045 75.8377 31.8422 79.0418 35.8475 79.0418H36.1147C40.2537 78.9086 43.4578 75.4369 43.3242 71.2979C43.191 67.2922 39.8529 64.0881 35.8475 64.0881H35.5807C35.3135 64.0881 34.9127 64.0881 34.6463 64.2213C29.1721 55.1422 26.9025 45.2623 27.7037 34.5807C28.2373 26.5697 30.9078 19.6266 35.5807 13.8852C39.4525 8.94508 46.9291 6.5418 52.0029 6.40861C66.1549 6.14139 72.1627 23.7656 72.5635 30.8422C74.2992 31.2426 77.2365 32.1775 79.2393 32.8451C77.6369 11.2156 64.2856 0 51.4688 0C39.4524 0 28.3709 8.67869 23.9647 21.4963C17.8234 38.5865 21.8287 55.009 29.3053 67.9602C28.6381 68.8947 28.2373 70.3635 28.3709 71.8324V71.832Z"
              fill="#764ABC"/>
    </g>
    <g id="git-hub">
        <path fill-rule="evenodd" clip-rule="evenodd"
              d="M44 0C19.69 0 0 19.69 0 44C0 63.47 12.595 79.915 30.085 85.745C32.285 86.13 33.11 84.81 33.11 83.655C33.11 82.61 33.055 79.145 33.055 75.46C22 77.495 19.14 72.765 18.26 70.29C17.765 69.025 15.62 65.12 13.75 64.075C12.21 63.25 10.01 61.215 13.695 61.16C17.16 61.105 19.635 64.35 20.46 65.67C24.42 72.325 30.745 70.455 33.275 69.3C33.66 66.44 34.815 64.515 36.08 63.415C26.29 62.315 16.06 58.52 16.06 41.69C16.06 36.905 17.765 32.945 20.57 29.865C20.13 28.765 18.59 24.255 21.01 18.205C21.01 18.205 24.695 17.05 33.11 22.715C36.63 21.725 40.37 21.23 44.11 21.23C47.85 21.23 51.59 21.725 55.11 22.715C63.525 16.995 67.21 18.205 67.21 18.205C69.63 24.255 68.09 28.765 67.65 29.865C70.455 32.945 72.16 36.85 72.16 41.69C72.16 58.575 61.875 62.315 52.085 63.415C53.68 64.79 55.055 67.43 55.055 71.555C55.055 77.44 55 82.17 55 83.655C55 84.81 55.825 86.185 58.025 85.745C66.7597 82.796 74.3497 77.1822 79.7268 69.6937C85.1039 62.2052 87.9974 53.219 88 44C88 19.69 68.31 0 44 0Z"
              fill="black"/>
    </g>
    <g id="npm">
        <path d="M103.02 47.8217L57.1758 1.98013C54.5372 -0.660044 50.2552 -0.660044 47.6134 1.98013L38.0937 11.4999L50.1699 23.5761C52.9762 22.6278 56.1943 23.264 58.4313 25.501C60.6789 27.7523 61.3106 30.9979 60.3393 33.8132L71.9775 45.4518C74.7932 44.4818 78.0421 45.1093 80.291 47.3619C83.434 50.5037 83.434 55.5958 80.291 58.7396C77.1471 61.8839 72.055 61.8839 68.9095 58.7396C66.5454 56.373 65.9613 52.901 67.1582 49.9885L56.3046 39.135L56.3034 67.697C57.0902 68.086 57.8088 68.5999 58.4313 69.2187C61.5743 72.3605 61.5743 77.453 58.4313 80.5993C55.2874 83.7419 50.1929 83.7419 47.0535 80.5993C43.9105 77.453 43.9105 72.3609 47.0535 69.2191C47.8067 68.4655 48.7019 67.8687 49.6871 67.4632V38.635C48.7004 38.2322 47.8048 37.635 47.0535 36.8791C44.6722 34.501 44.0996 31.0069 45.3198 28.0829L33.4154 16.1773L1.98105 47.6096C-0.660352 50.2522 -0.660352 54.5347 1.98105 57.1753L47.8259 103.018C50.4652 105.658 54.7464 105.658 57.3891 103.018L103.019 57.3881C105.66 54.7467 105.66 50.4618 103.019 47.8217"
              fill="#DE4C36"/>
    </g>
    <g id="sass">
        <path d="M100.463 49.8709C96.3928 49.8917 92.8551 50.8637 89.8932 52.3005C88.806 50.1663 87.7193 48.265 87.5278 46.8703C87.3144 45.2436 87.0589 44.2503 87.3143 42.3064C87.5703 40.3625 88.721 37.5944 88.6995 37.3832C88.6785 37.1721 88.4436 36.1788 86.0996 36.158C83.7556 36.1367 81.7311 36.6016 81.4966 37.2142C81.2622 37.8268 80.8148 39.2215 80.5163 40.658C80.1114 42.7713 75.8284 50.314 73.3779 54.2653C72.5891 52.7233 71.9072 51.3707 71.7578 50.2932C71.5448 48.6665 71.2889 47.6732 71.5448 45.7293C71.8007 43.7854 72.9515 41.0177 72.93 40.8061C72.9085 40.595 72.6741 39.6017 70.3301 39.5809C67.9856 39.5596 65.9611 40.0245 65.7271 40.6371C65.4927 41.2502 65.2367 42.6866 64.7468 44.0813C64.2565 45.476 58.5667 58.0693 57.075 61.3227C56.4722 62.6396 55.8399 63.9429 55.1784 65.2318C55.1784 65.2318 55.157 65.2953 55.093 65.4008C54.8852 65.805 54.6722 66.2065 54.4541 66.6052V66.6261C54.1342 67.197 53.7932 67.7249 53.6228 67.7249C53.4948 67.7249 53.2604 66.2038 53.6653 64.133C54.5176 59.7594 56.5421 52.9558 56.5211 52.7233C56.5211 52.5964 56.9046 51.4133 55.1999 50.8003C53.5373 50.1876 52.9409 51.2017 52.7915 51.2017C52.6425 51.2017 52.5356 51.5611 52.5356 51.5611C52.5356 51.5611 54.3901 43.9123 48.9983 43.9123C45.6315 43.9123 40.9856 47.5677 38.6841 50.8637C36.0678 52.2754 33.4537 53.6911 30.8418 55.1108C29.5851 55.8082 28.2849 56.5055 27.0701 57.1603C26.9847 57.076 26.8997 56.97 26.8142 56.8857C20.2932 49.9765 8.2318 45.0954 8.74319 35.8199C8.93513 32.4392 10.1069 23.5647 31.9076 12.789C49.8506 4.02008 64.129 6.44974 66.6009 11.8378C70.1382 19.5292 58.9506 33.8126 40.4102 35.8829C33.3353 36.665 29.6271 33.9603 28.6898 32.9462C27.7095 31.8895 27.5601 31.8261 27.1976 32.0377C26.6012 32.3549 26.9847 33.3055 27.1976 33.8547C27.752 35.2911 30.032 37.8268 33.8892 39.0738C37.2989 40.1722 45.5886 40.7853 55.6258 36.9396C66.8564 32.629 75.6364 20.6489 73.058 10.6126C70.4791 0.428159 53.4308 -2.93131 37.2989 2.75224C27.7095 6.13346 17.3098 11.4577 9.82995 18.3882C0.943427 26.6283 -0.463244 33.7913 0.112129 36.7919C2.17964 47.4408 16.9904 54.3713 22.9146 59.5057C22.6161 59.6747 22.3387 59.8229 22.1047 59.9497C19.1424 61.4075 7.84791 67.26 5.03502 73.4511C1.83871 80.4659 5.54687 85.4951 7.99735 86.1707C15.6052 88.2628 23.426 84.5019 27.624 78.2895C31.8221 72.0776 31.3107 64.0061 29.3716 60.3086C29.3502 60.2665 29.3291 60.2239 29.2862 60.1817C30.0535 59.7381 30.8418 59.2732 31.6091 58.8296C33.0194 58.003 34.4476 57.2068 35.8927 56.4417C35.1679 58.4069 34.635 60.7522 34.3795 64.133C34.0596 68.1055 35.7003 73.2607 37.8528 75.2889C38.8121 76.1771 39.9413 76.1979 40.6661 76.1979C43.1806 76.1979 44.3103 74.1271 45.5676 71.6762C47.1017 68.676 48.4869 65.1897 48.4869 65.1897C48.4869 65.1897 46.7608 74.6133 51.4492 74.6133C53.1539 74.6133 54.88 72.4157 55.6473 71.296V71.3168C55.6473 71.3168 55.6898 71.2534 55.7753 71.1057C55.9458 70.8311 56.0522 70.6616 56.0522 70.6616V70.6199C56.7341 69.4364 58.2687 66.753 60.5487 62.2947C63.4896 56.5477 66.324 49.3638 66.324 49.3638C66.324 49.3638 66.5799 51.1174 67.4532 54.0333C67.9651 55.7448 69.0299 57.6252 69.8827 59.4422C69.2008 60.3934 68.7744 60.9212 68.7744 60.9212L68.7959 60.9425C68.2416 61.6607 67.6452 62.4424 66.9843 63.2036C64.6614 65.95 61.8914 69.0988 61.5075 70.0069C61.0597 71.0844 61.1666 71.8665 62.0194 72.5004C62.6373 72.9653 63.7451 73.0283 64.8748 72.9653C66.9633 72.8171 68.4335 72.3101 69.1579 71.9934C70.2876 71.5919 71.6088 70.9788 72.8446 70.0703C75.125 68.401 76.5098 66.0135 76.3823 62.8656C76.3183 61.1329 75.7429 59.4001 75.0396 57.7729C75.253 57.4775 75.4445 57.1816 75.6579 56.8857C79.2591 51.6666 82.051 45.9405 82.051 45.9405C82.051 45.9405 82.3069 47.6941 83.1803 50.6104C83.6066 52.0894 84.4804 53.6953 85.2473 55.2585C81.859 57.9845 79.7705 61.1537 79.0247 63.2245C77.6824 67.0702 78.7262 68.8024 80.7083 69.2039C81.6031 69.3942 82.8818 68.9715 83.8196 68.57C85.0129 68.1898 86.4195 67.5351 87.7622 66.5627C90.0427 64.8938 92.2372 62.5693 92.1093 59.4214C92.0453 57.9845 91.6619 56.5685 91.129 55.1951C94.0059 54.0125 97.714 53.3572 102.445 53.9064C112.589 55.0895 114.592 61.3649 114.208 64.0066C113.824 66.6474 111.693 68.0843 110.991 68.5279C110.287 68.9719 110.053 69.1196 110.117 69.4364C110.202 69.9013 110.543 69.8804 111.14 69.7957C111.971 69.648 116.467 67.6615 116.659 62.8017C116.979 56.5898 111.012 49.8075 100.463 49.8709ZM22.2112 76.0289C18.844 79.6629 14.156 81.0364 12.1314 79.8746C9.95792 78.6276 10.8102 73.2607 14.9443 69.4155C17.4588 67.0702 20.6981 64.8933 22.8506 63.5625C23.3405 63.2666 24.0653 62.8443 24.9391 62.316C25.0881 62.2312 25.1736 62.1891 25.1736 62.1891L25.6849 61.8719C27.1976 67.3656 25.7489 72.2045 22.2112 76.0289ZM46.7183 59.5057C45.5461 62.3373 43.0956 69.5845 41.6039 69.1831C40.3252 68.845 39.5364 63.3514 41.348 57.9211C42.2643 55.1951 44.2034 51.9412 45.3331 50.6738C47.1657 48.6452 49.1903 47.9687 49.6802 48.7934C50.2985 49.8709 47.4427 57.7308 46.7183 59.5057ZM66.9418 69.0983C66.4515 69.3521 65.983 69.5211 65.7696 69.3942C65.6206 69.3095 65.983 68.9715 65.983 68.9715C65.983 68.9715 68.519 66.2672 69.5203 65.0415C70.0961 64.3233 70.7775 63.4782 71.5023 62.5271V62.8017C71.5023 66.0348 68.348 68.2111 66.9414 69.0983H66.9418ZM82.5409 65.5699C82.1785 65.3161 82.2425 64.471 83.4572 61.8298C83.9261 60.7944 85.0339 59.0621 86.9309 57.3928C87.1439 58.0688 87.2933 58.724 87.2719 59.3367C87.2504 63.4148 84.31 64.9359 82.5409 65.5699Z"
              fill="#CD6799"/>
    </g>
    <g id="vite">
        <path d="M28.6562 22.925C32.4771 7.64166 42.0292 0 57.3125 0C80.2375 0 83.1031 17.1937 94.5656 20.0594C102.207 21.9698 108.894 19.1042 114.625 11.4625C110.804 26.7458 101.252 34.3875 85.9688 34.3875C63.0438 34.3875 60.1781 17.1938 48.7156 14.3281C41.074 12.4177 34.3875 15.2833 28.6562 22.925ZM0 57.3125C3.82083 42.0292 13.3729 34.3875 28.6562 34.3875C51.5812 34.3875 54.4469 51.5812 65.9094 54.4469C73.551 56.3573 80.2375 53.4917 85.9688 45.85C82.1479 61.1333 72.5958 68.775 57.3125 68.775C34.3875 68.775 31.5219 51.5812 20.0594 48.7156C12.4177 46.8052 5.73125 49.6708 0 57.3125Z"
              fill="#44A8B3"/>
    </g>
    <g id="twitter">
        <path d="M15 0C6.71652 0 0 6.71652 0 15C0 23.2835 6.71652 30 15 30C23.2835 30 30 23.2835 30 15C30 6.71652 23.2835 0 15 0ZM22.2087 11.3069C22.2187 11.4643 22.2187 11.6283 22.2187 11.7891C22.2187 16.7042 18.4754 22.3661 11.635 22.3661C9.52567 22.3661 7.57031 21.7533 5.92299 20.6987C6.22433 20.7321 6.51228 20.7455 6.82031 20.7455C8.56138 20.7455 10.1618 20.1562 11.4375 19.1585C9.80357 19.125 8.4308 18.0536 7.96205 16.5804C8.5346 16.6641 9.05022 16.6641 9.63951 16.5134C8.79819 16.3425 8.04199 15.8855 7.49938 15.2203C6.95678 14.555 6.66123 13.7223 6.66295 12.8638V12.817C7.15513 13.0949 7.73438 13.2656 8.3404 13.2891C7.83095 12.9495 7.41314 12.4895 7.12403 11.9499C6.83493 11.4102 6.68345 10.8075 6.68304 10.1953C6.68304 9.50223 6.86384 8.86942 7.18862 8.32031C8.12244 9.46988 9.28771 10.4101 10.6087 11.0798C11.9297 11.7495 13.3768 12.1338 14.856 12.2076C14.3304 9.67969 16.2188 7.63393 18.4888 7.63393C19.5603 7.63393 20.5246 8.08259 21.2042 8.8058C22.0446 8.64844 22.8482 8.3337 23.5647 7.91183C23.2868 8.77232 22.7042 9.49888 21.9308 9.95759C22.6808 9.87723 23.404 9.66964 24.0737 9.37835C23.5681 10.1217 22.9353 10.7812 22.2087 11.3069Z"
              fill="#42446E"/>
    </g>
    <g id="contacts-git-hub">
        <path fill-rule="evenodd" clip-rule="evenodd"
              d="M15 0C6.7125 0 0 6.7125 0 15C0 21.6375 4.29375 27.2437 10.2563 29.2313C11.0063 29.3625 11.2875 28.9125 11.2875 28.5188C11.2875 28.1625 11.2688 26.9813 11.2688 25.725C7.5 26.4188 6.525 24.8062 6.225 23.9625C6.05625 23.5312 5.325 22.2 4.6875 21.8438C4.1625 21.5625 3.4125 20.8687 4.66875 20.85C5.85 20.8313 6.69375 21.9375 6.975 22.3875C8.325 24.6562 10.4812 24.0187 11.3438 23.625C11.475 22.65 11.8688 21.9937 12.3 21.6187C8.9625 21.2437 5.475 19.95 5.475 14.2125C5.475 12.5813 6.05625 11.2313 7.0125 10.1813C6.8625 9.80625 6.3375 8.26875 7.1625 6.20625C7.1625 6.20625 8.41875 5.8125 11.2875 7.74375C12.4875 7.40625 13.7625 7.2375 15.0375 7.2375C16.3125 7.2375 17.5875 7.40625 18.7875 7.74375C21.6562 5.79375 22.9125 6.20625 22.9125 6.20625C23.7375 8.26875 23.2125 9.80625 23.0625 10.1813C24.0188 11.2313 24.6 12.5625 24.6 14.2125C24.6 19.9688 21.0938 21.2437 17.7563 21.6187C18.3 22.0875 18.7688 22.9875 18.7688 24.3937C18.7688 26.4 18.75 28.0125 18.75 28.5188C18.75 28.9125 19.0312 29.3813 19.7812 29.2313C22.759 28.2259 25.3465 26.3121 27.1796 23.7592C29.0127 21.2063 29.9991 18.1429 30 15C30 6.7125 23.2875 0 15 0Z"
              fill="#42446E"/>
    </g>
    <g id="js">
        <path d="M7.5 7.5H112.5V112.5H7.5V7.5Z" fill="#F5DE19"/>
        <path d="M78.0338 89.5312C78.9284 91.3485 80.3183 92.8759 82.0434 93.9375C83.7684 94.9991 85.7584 95.5515 87.7838 95.5313C91.8713 95.5313 94.485 93.4875 94.485 90.6562C94.485 87.2812 91.8 86.0738 87.3 84.105L84.8325 83.0475C77.7075 80.0138 72.9825 76.215 72.9825 68.1825C72.9825 60.7838 78.6075 55.1475 87.4313 55.1475C90.2877 54.9412 93.1416 55.5805 95.637 56.9856C98.1324 58.3907 100.159 60.4994 101.464 63.0488L93.75 67.98C93.2476 66.716 92.3728 65.6345 91.2416 64.879C90.1105 64.1236 88.7764 63.7298 87.4163 63.75C86.8229 63.6906 86.2236 63.7555 85.6567 63.9404C85.0897 64.1254 84.5675 64.4265 84.1234 64.8244C83.6792 65.2224 83.3228 65.7085 83.0769 66.2518C82.831 66.7951 82.7009 67.3837 82.695 67.98C82.695 70.9388 84.5288 72.1388 88.7625 73.98L91.23 75.0375C99.615 78.6338 104.355 82.2975 104.355 90.5363C104.355 99.42 97.3763 104.287 88.005 104.287C84.3537 104.52 80.713 103.691 77.5223 101.901C74.3317 100.11 71.7274 97.4342 70.0238 94.1963L78.0338 89.5312ZM43.1775 90.3863C44.7263 93.135 46.1363 95.46 49.5263 95.46C52.7663 95.46 54.8138 94.1925 54.8138 89.2612V55.71H64.68V89.3925C64.68 99.6075 58.68 104.257 49.9463 104.257C46.8591 104.426 43.7931 103.657 41.1513 102.051C38.5096 100.444 36.4157 98.0761 35.145 95.2575L43.1775 90.3863Z"
              fill="black"/>
    </g>
    <g id="react">
        <path d="M92.9008 32.7027C91.6983 32.2886 90.4857 31.905 89.2639 31.5522C89.4692 30.7106 89.6581 29.8791 89.8258 29.0622C92.5791 15.6483 90.7792 4.84172 84.6313 1.28369C78.7368 -2.12728 69.0969 1.42943 59.3611 9.93336C58.4016 10.773 57.4634 11.6368 56.5474 12.5239C55.9342 11.934 55.3101 11.3555 54.6756 10.7888C44.472 1.6961 34.2445 -2.13614 28.1033 1.43209C22.2141 4.85368 20.4703 15.0126 22.949 27.7253C23.1956 28.9844 23.4741 30.2369 23.7841 31.4818C22.3364 31.8947 20.9395 32.3341 19.6026 32.8019C7.63967 36.9881 0 43.5482 0 50.3528C0 57.3808 8.20153 64.4299 20.6614 68.7043C21.6715 69.0494 22.6901 69.3692 23.7161 69.6633C23.3829 71.0041 23.0871 72.354 22.829 73.7113C20.4659 86.2034 22.3112 96.1222 28.1845 99.5221C34.2507 103.033 44.4322 99.4247 54.3458 90.7267C55.1497 90.0196 55.9359 89.2924 56.7036 88.5459C57.6956 89.5065 58.7141 90.4392 59.7579 91.3429C69.3612 99.6364 78.8454 102.985 84.713 99.5762C90.7734 96.0549 92.7432 85.3994 90.186 72.4355C89.9845 71.4199 89.7586 70.4093 89.5084 69.4046C90.2235 69.192 90.9252 68.9732 91.6094 68.7455C104.563 64.4384 112.991 57.4747 112.991 50.3528C112.991 43.5234 105.104 36.919 92.9008 32.7027ZM90.0915 64.1473C89.4736 64.3524 88.8398 64.5504 88.1936 64.7431C86.7636 60.1995 84.8339 55.3683 82.4721 50.3763C84.7258 45.5035 86.5813 40.7339 87.9712 36.2199C89.1271 36.5557 90.2486 36.9097 91.33 37.2831C101.786 40.8961 108.164 46.2371 108.164 50.3528C108.164 54.7366 101.276 60.4276 90.0915 64.1473ZM85.4509 73.3764C86.5817 79.1086 86.7428 84.2915 85.9938 88.3435C85.3212 91.9843 83.9679 94.4114 82.2943 95.3838C78.7337 97.4525 71.1188 94.7636 62.9062 87.6706C61.9354 86.8304 60.988 85.9633 60.0651 85.0703C63.2492 81.5756 66.431 77.513 69.5365 73.0008C74.9989 72.5144 80.1594 71.7188 84.8392 70.633C85.0646 71.5425 85.2686 72.4572 85.4509 73.3764ZM38.521 95.0263C35.0421 96.2591 32.2712 96.2946 30.5962 95.3253C27.0321 93.2623 25.5504 85.298 27.5715 74.615C27.8117 73.3526 28.0868 72.0972 28.3964 70.8501C33.0246 71.8778 38.1476 72.6167 43.6228 73.0623C46.7494 77.4776 50.0231 81.5357 53.3223 85.0893C52.6212 85.7702 51.9034 86.4337 51.1698 87.0792C46.7856 90.9252 42.3927 93.6539 38.521 95.0263ZM22.223 64.1203C16.7133 62.2301 12.1633 59.7738 9.04455 57.0933C6.24185 54.6848 4.82726 52.2931 4.82726 50.3528C4.82726 46.2234 10.961 40.9563 21.1915 37.3766C22.4331 36.9424 23.7324 36.5327 25.0808 36.1482C26.495 40.764 28.3496 45.5903 30.5878 50.4707C28.3205 55.4232 26.4394 60.3266 25.0115 64.997C24.075 64.7277 23.1452 64.4354 22.223 64.1203ZM27.6862 26.7946C25.5628 15.903 26.973 7.687 30.522 5.62491C34.3019 3.42861 42.6606 6.56005 51.4708 14.4115C52.0453 14.9246 52.6105 15.4482 53.1661 15.9818C49.8832 19.5199 46.6395 23.548 43.5407 27.9371C38.2266 28.4314 33.1398 29.2252 28.463 30.2888C28.1749 29.131 27.9159 27.966 27.6862 26.795V26.7946ZM76.4254 38.8738C75.3207 36.9588 74.1751 35.0679 72.9893 33.2023C76.5944 33.6599 80.0486 34.2673 83.2922 35.0097C82.3185 38.1425 81.1048 41.4175 79.6761 44.7753C78.6317 42.7866 77.548 40.8191 76.4254 38.8738ZM56.5496 19.4442C58.7759 21.8651 61.0057 24.5677 63.1988 27.5003C58.7498 27.2894 54.2934 27.2885 49.8443 27.4976C52.0397 24.5921 54.2885 21.893 56.5496 19.4442ZM36.5463 38.9071C35.4377 40.8366 34.3742 42.7919 33.3565 44.7713C31.9512 41.4254 30.7485 38.1354 29.7664 34.9583C32.9902 34.2345 36.428 33.6427 40.0102 33.1935C38.8111 35.0704 37.6562 36.9753 36.5463 38.9066V38.9071ZM40.113 67.8569C36.4121 67.4422 32.9226 66.881 29.6998 66.1766C30.6973 62.9429 31.9265 59.5828 33.3623 56.1652C34.3839 58.1461 35.4519 60.1025 36.5653 62.033C37.7102 64.0175 38.8957 65.9613 40.113 67.8569ZM56.6829 81.6026C54.3948 79.1255 52.113 76.3847 49.8845 73.4371C52.0481 73.5222 54.2536 73.5656 56.4953 73.5656C58.7984 73.5656 61.075 73.5137 63.3158 73.4136C61.1156 76.4144 58.8942 79.1591 56.6829 81.6026ZM79.7215 55.9907C81.2319 59.4459 82.5048 62.7883 83.5155 65.9667C80.2397 66.7171 76.7026 67.3213 72.9756 67.77C74.1699 65.8699 75.3263 63.9461 76.4443 61.9998C77.581 60.0214 78.6737 58.0179 79.7215 55.9907ZM72.2633 59.5793C70.5517 62.5634 68.7439 65.4908 66.8428 68.357C63.399 68.6018 59.9477 68.7234 56.4953 68.7216C52.9789 68.7216 49.5588 68.6117 46.2653 68.3973C44.3145 65.5378 42.4722 62.6052 40.7424 59.6059H40.7428C39.0211 56.6224 37.413 53.5744 35.9218 50.4685C37.4092 47.3618 39.0125 44.3124 40.7283 41.3266L40.7278 41.3271C42.443 38.3406 44.2705 35.4206 46.2066 32.5733C49.5667 32.3181 53.0125 32.1853 56.4949 32.1853H56.4953C59.9936 32.1853 63.4438 32.3195 66.8031 32.5764C68.7195 35.4194 70.5354 38.3294 72.2474 41.3009C73.9689 44.2801 75.5934 47.3146 77.1183 50.3998C75.6091 53.5165 73.9897 56.5783 72.2633 59.5793ZM82.2206 5.4805C86.004 7.67061 87.4755 16.5023 85.0983 28.0841C84.9464 28.823 84.7761 29.5756 84.5907 30.3389C79.9025 29.2527 74.8122 28.4452 69.4826 27.9433C66.378 23.5059 63.1609 19.4717 59.9314 15.9792C60.7778 15.1603 61.6443 14.3627 62.5302 13.5871C70.8721 6.30135 78.6684 3.42462 82.2206 5.4805ZM56.4953 40.2263C62.0676 40.2263 66.585 44.7602 66.585 50.3528C66.585 55.9455 62.0676 60.4794 56.4953 60.4794C50.923 60.4794 46.4056 55.9455 46.4056 50.3528C46.4056 44.7602 50.923 40.2263 56.4953 40.2263Z" fill="#00D8FF"/>
    </g>
    <g id="logo">
        <svg xmlns="http://www.w3.org/2000/svg" version="1.1" xmlns:xlink="http://www.w3.org/1999/xlink" viewBox="0 0 200 200"><rect width="200" height="200" fill="url('#gradient')"></rect><defs><linearGradient id="gradient" gradientTransform="rotate(45 0.5 0.5)"><stop offset="0%" stop-color="#429b84"></stop><stop offset="100%" stop-color="#506990"></stop></linearGradient></defs><g><g fill="#efe5e4" transform="matrix(5.259581193204267,0,0,5.259581193204267,35.15025973052717,137.39499785239778)" stroke="#edd7cf" stroke-width="0.05"><path d="M9.98 0L9.15-2.66L4.45-2.66L3.63 0L-0.03 0L5.19-14.22L8.41-14.22L13.66 0L9.98 0ZM6.80-10.23L5.27-5.30L8.33-5.30L6.80-10.23ZM24.69-14.22L24.69-11.57L20.42-11.57L20.42 0L16.99 0L16.99-11.57L12.80-11.57L12.80-14.22L24.69-14.22Z"></path></g></g></svg>
    </g>
    <g id="quote">
        <path d="M29.9 27.8C26.6333 27.8 24.2667 26.6333 22.8 24.3C22.1333 23.3 21.6 22.0667 21.2 20.6C20.8 19.1333 20.6 17.6 20.6 16C20.6 12.5333 21.4667 9.40001 23.2 6.60001C25 3.80001 27.6333 1.60001 31.1 6.4373e-06L32 1.80001C30.0667 2.60001 28.3667 3.83334 26.9 5.50001C25.5 7.16668 24.6667 8.86668 24.4 10.6C24.2 11.4 24.1 12.1667 24.1 12.9C24.1 13.5667 24.2 14.2 24.4 14.8C25.8667 13.2 27.8 12.4 30.2 12.4C32.5333 12.4 34.4333 13.1 35.9 14.5C37.3667 15.8333 38.1 17.7 38.1 20.1C38.1 22.3667 37.3333 24.2333 35.8 25.7C34.2667 27.1 32.3 27.8 29.9 27.8ZM9.3 27.8C6.03333 27.8 3.66667 26.6333 2.2 24.3C1.53333 23.3 0.999999 22.0667 0.599999 20.6C0.199999 19.1333 -1.17719e-06 17.6 -1.17719e-06 16C-1.17719e-06 12.5333 0.866665 9.40001 2.6 6.60001C4.4 3.80001 7.03333 1.60001 10.5 6.4373e-06L11.4 1.80001C9.46667 2.60001 7.76667 3.83334 6.3 5.50001C4.9 7.16668 4.06667 8.86668 3.8 10.6C3.6 11.4 3.5 12.1667 3.5 12.9C3.5 13.5667 3.6 14.2 3.8 14.8C5.26667 13.2 7.2 12.4 9.6 12.4C11.9333 12.4 13.8333 13.1 15.3 14.5C16.7667 15.8333 17.5 17.7 17.5 20.1C17.5 22.3667 16.7333 24.2333 15.2 25.7C13.6667 27.1 11.7 27.8 9.3 27.8Z" fill="white"/>
    </g>

<!-- social -->
    <g id="instagram">
        <path d="M13.5516 0H3.24844C1.45687 0 0 1.45631 0 3.24717V6.67802V13.5528C0 15.3437 1.45687 16.8 3.24844 16.8H13.5516C15.3431 16.8 16.8 15.3437 16.8 13.5528V6.67146V3.24061C16.7934 1.45631 15.3366 0 13.5516 0ZM14.4834 1.93518H14.8575V2.30254V4.78219L12.0159 4.78875L12.0094 1.94174L14.4834 1.93518ZM5.99812 6.67146C6.53625 5.93018 7.40906 5.43819 8.39344 5.43819C9.37781 5.43819 10.2506 5.92362 10.7887 6.67146C11.1431 7.15689 11.3466 7.75385 11.3466 8.39672C11.3466 10.0236 10.0209 11.3553 8.38688 11.3553C6.75281 11.3553 5.44031 10.0236 5.44031 8.39672C5.44031 7.75385 5.65031 7.15689 5.99812 6.67146ZM15.1594 13.5463C15.1594 14.4319 14.4375 15.1535 13.5516 15.1535H3.24844C2.3625 15.1535 1.64062 14.4319 1.64062 13.5463V6.67146H4.1475C3.93094 7.20281 3.80625 7.78665 3.80625 8.39672C3.80625 10.9289 5.86687 12.9887 8.4 12.9887C10.9331 12.9887 12.9937 10.9289 12.9937 8.39672C12.9937 7.78665 12.8691 7.20281 12.6525 6.67146H15.1594V13.5463Z" fill="#7572D5"/>
    </g>
    <g id="telegram">
        <path d="M16.7521 1.28231L14.2169 13.2386C14.0254 14.0823 13.5268 14.2923 12.8181 13.8951L8.95489 11.0483L7.0911 12.8413C6.88467 13.0478 6.71245 13.22 6.31461 13.22L6.59244 9.28596L13.7518 2.81668C14.0632 2.53945 13.684 2.38523 13.2682 2.66306L4.41721 8.23645L0.606807 7.04352C-0.221881 6.7849 -0.236883 6.21484 0.779625 5.81699L15.6834 0.0749851C16.3735 -0.183642 16.9771 0.228001 16.7521 1.28231Z" fill="#1F1F20"/>
    </g>
    <g id="vk">
        <path d="M16.0696 7.84834C15.7038 7.39337 15.2882 6.98561 14.8862 6.59126C14.7432 6.45101 14.5954 6.30601 14.453 6.16183C14.0439 5.74745 14.0291 5.59177 14.3529 5.12109C14.5769 4.79665 14.8145 4.47178 15.0442 4.15759C15.2526 3.87254 15.4681 3.57776 15.6746 3.28202L15.717 3.22121C16.1117 2.65528 16.52 2.07008 16.7372 1.36413C16.7936 1.17788 16.8529 0.903795 16.7174 0.674612C16.5821 0.44562 16.3195 0.375759 16.1337 0.343128C16.0419 0.32698 15.9506 0.324776 15.866 0.324776L13.2809 0.322859L13.2596 0.322668C12.8687 0.322668 12.6053 0.513518 12.4544 0.906191C12.3103 1.28137 12.152 1.6809 11.9714 2.06078C11.612 2.81723 11.1554 3.68849 10.4949 4.41514L10.4669 4.44605C10.3889 4.53292 10.3006 4.63129 10.236 4.63129C10.2261 4.63129 10.2153 4.62933 10.2031 4.62535C10.0662 4.5701 9.97441 4.22688 9.97857 4.06722C9.97862 4.06502 9.97866 4.06282 9.97866 4.06061L9.97686 0.964745C9.97686 0.954011 9.97612 0.943374 9.97478 0.932737C9.90902 0.429473 9.76336 0.116197 9.21298 0.00450384C9.19836 0.00148512 9.18343 0 9.16854 0H6.48064C6.04272 0 5.80142 0.184429 5.5746 0.460475C5.51338 0.534266 5.38593 0.687885 5.4491 0.874231C5.51319 1.06336 5.72124 1.1038 5.78898 1.11693C6.12526 1.18324 6.31481 1.39637 6.3685 1.76878C6.46223 2.41546 6.47375 3.10569 6.40475 3.94101C6.38551 4.17317 6.34746 4.35247 6.28475 4.50566C6.27019 4.5414 6.21853 4.65808 6.16586 4.65813C6.14912 4.65813 6.10071 4.65132 6.01252 4.58836C5.80401 4.44035 5.65146 4.22913 5.47361 3.96823C4.86857 3.08221 4.36078 2.10616 3.92101 0.983624C3.75791 0.570395 3.45331 0.339055 3.06293 0.332251C2.63398 0.325495 2.24508 0.322236 1.87417 0.322236C1.4689 0.322236 1.09318 0.326118 0.726289 0.334024C0.412209 0.339774 0.194961 0.437331 0.0806489 0.624204C-0.033848 0.811221 -0.0264029 1.05689 0.102799 1.35426C1.13706 3.73679 2.07482 5.46911 3.14349 6.97138C3.89229 8.02256 4.64337 8.75017 5.5069 9.261C6.41668 9.8003 7.43624 10.0625 8.62375 10.0625C8.75836 10.0625 8.89756 10.0591 9.0379 10.0523C9.72793 10.0175 9.98393 9.75866 10.0163 9.06249C10.0317 8.70671 10.0693 8.33359 10.238 8.01537C10.3446 7.81489 10.4439 7.81489 10.4766 7.81489C10.5394 7.81489 10.6174 7.84489 10.7012 7.90109C10.8514 8.00268 10.9801 8.13876 11.0857 8.25764C11.1851 8.37058 11.2834 8.48467 11.3817 8.5988C11.594 8.84514 11.8134 9.09981 12.0427 9.34136C12.5445 9.8704 13.0974 10.1031 13.7323 10.0526H16.1023C16.1074 10.0526 16.1125 10.0524 16.1175 10.0521C16.3537 10.0359 16.5582 9.90016 16.6787 9.67965C16.8279 9.40648 16.8249 9.05798 16.6706 8.7472C16.4956 8.39578 16.2685 8.09554 16.0696 7.84834Z" fill="#7572D5"/>
    </g>
</svg>
