<svg width="105" height="100" viewBox="0 0 105 100" fill="none" xmlns="http://www.w3.org/2000/svg">
    <g id="redux">
        <path d="M72.6971 69.5627C76.5688 69.1619 79.5061 65.8242 79.3725 61.8184C79.2393 57.8131 75.9012 54.6086 71.8959 54.6086H71.6291C67.4897 54.7422 64.2856 58.2135 64.4193 62.3525C64.5529 64.3553 65.3537 66.091 66.5553 67.2926C62.016 76.2385 55.0734 82.7807 44.6594 88.2549C37.5832 91.9934 30.2402 93.3287 22.8971 92.3943C16.8889 91.593 12.216 88.923 9.27827 84.5164C5.00614 77.9742 4.60573 70.8975 8.21065 63.8213C10.7475 58.7475 14.7525 55.009 17.2893 53.1398C16.7553 51.4041 15.9541 48.4668 15.5537 46.3307C-3.80574 60.35 -1.80287 79.3094 4.07172 88.2549C8.47745 94.9311 17.4229 99.0701 27.3029 99.0701C29.9729 99.0701 32.643 98.8029 35.3135 98.1357C52.4033 94.7975 65.3541 84.65 72.6971 69.5627ZM96.1955 53.0066C86.0483 41.1234 71.0951 34.5811 54.0053 34.5811H51.8693C50.6676 32.1779 48.1307 30.5754 45.327 30.5754H45.0598C40.9213 30.709 37.7172 34.1803 37.8504 38.3197C37.984 42.325 41.3217 45.5295 45.327 45.5295H45.5938C48.5311 45.3959 51.068 43.5266 52.1361 40.9898H54.5393C64.6865 40.9898 74.2992 43.927 82.9779 49.6684C89.6533 54.0746 94.4598 59.816 97.1299 66.7586C99.3996 72.3664 99.266 77.8406 96.8627 82.5139C93.1246 89.5902 86.8496 93.4623 78.5717 93.4623C73.2311 93.4623 68.1578 91.8598 65.4873 90.6582C64.0188 91.9934 61.3484 94.1295 59.4791 95.4652C65.2205 98.1352 71.0951 99.6041 76.7025 99.6041C89.5197 99.6041 98.9992 92.5275 102.604 85.4512C106.476 77.707 106.209 64.3553 96.1955 53.0066ZM28.3709 71.832C28.5045 75.8377 31.8422 79.0418 35.8475 79.0418H36.1147C40.2537 78.9086 43.4578 75.4369 43.3242 71.2979C43.191 67.2922 39.8529 64.0881 35.8475 64.0881H35.5807C35.3135 64.0881 34.9127 64.0881 34.6463 64.2213C29.1721 55.1422 26.9025 45.2623 27.7037 34.5807C28.2373 26.5697 30.9078 19.6266 35.5807 13.8852C39.4525 8.94508 46.9291 6.5418 52.0029 6.40861C66.1549 6.14139 72.1627 23.7656 72.5635 30.8422C74.2992 31.2426 77.2365 32.1775 79.2393 32.8451C77.6369 11.2156 64.2856 0 51.4688 0C39.4524 0 28.3709 8.67869 23.9647 21.4963C17.8234 38.5865 21.8287 55.009 29.3053 67.9602C28.6381 68.8947 28.2373 70.3635 28.3709 71.8324V71.832Z"
              fill="#764ABC"/>
    </g>
    <g id="git-hub">
        <path fill-rule="evenodd" clip-rule="evenodd"
              d="M44 0C19.69 0 0 19.69 0 44C0 63.47 12.595 79.915 30.085 85.745C32.285 86.13 33.11 84.81 33.11 83.655C33.11 82.61 33.055 79.145 33.055 75.46C22 77.495 19.14 72.765 18.26 70.29C17.765 69.025 15.62 65.12 13.75 64.075C12.21 63.25 10.01 61.215 13.695 61.16C17.16 61.105 19.635 64.35 20.46 65.67C24.42 72.325 30.745 70.455 33.275 69.3C33.66 66.44 34.815 64.515 36.08 63.415C26.29 62.315 16.06 58.52 16.06 41.69C16.06 36.905 17.765 32.945 20.57 29.865C20.13 28.765 18.59 24.255 21.01 18.205C21.01 18.205 24.695 17.05 33.11 22.715C36.63 21.725 40.37 21.23 44.11 21.23C47.85 21.23 51.59 21.725 55.11 22.715C63.525 16.995 67.21 18.205 67.21 18.205C69.63 24.255 68.09 28.765 67.65 29.865C70.455 32.945 72.16 36.85 72.16 41.69C72.16 58.575 61.875 62.315 52.085 63.415C53.68 64.79 55.055 67.43 55.055 71.555C55.055 77.44 55 82.17 55 83.655C55 84.81 55.825 86.185 58.025 85.745C66.7597 82.796 74.3497 77.1822 79.7268 69.6937C85.1039 62.2052 87.9974 53.219 88 44C88 19.69 68.31 0 44 0Z"
              fill="#FFFEFE"/>
    </g>
    <g id="npm">
        <path d="M103.02 47.8217L57.1758 1.98013C54.5372 -0.660044 50.2552 -0.660044 47.6134 1.98013L38.0937 11.4999L50.1699 23.5761C52.9762 22.6278 56.1943 23.264 58.4313 25.501C60.6789 27.7523 61.3106 30.9979 60.3393 33.8132L71.9775 45.4518C74.7932 44.4818 78.0421 45.1093 80.291 47.3619C83.434 50.5037 83.434 55.5958 80.291 58.7396C77.1471 61.8839 72.055 61.8839 68.9095 58.7396C66.5454 56.373 65.9613 52.901 67.1582 49.9885L56.3046 39.135L56.3034 67.697C57.0902 68.086 57.8088 68.5999 58.4313 69.2187C61.5743 72.3605 61.5743 77.453 58.4313 80.5993C55.2874 83.7419 50.1929 83.7419 47.0535 80.5993C43.9105 77.453 43.9105 72.3609 47.0535 69.2191C47.8067 68.4655 48.7019 67.8687 49.6871 67.4632V38.635C48.7004 38.2322 47.8048 37.635 47.0535 36.8791C44.6722 34.501 44.0996 31.0069 45.3198 28.0829L33.4154 16.1773L1.98105 47.6096C-0.660352 50.2522 -0.660352 54.5347 1.98105 57.1753L47.8259 103.018C50.4652 105.658 54.7464 105.658 57.3891 103.018L103.019 57.3881C105.66 54.7467 105.66 50.4618 103.019 47.8217"
              fill="#DE4C36"/>
    </g>
    <g id="man">
        <path d="M67.365 119.745C65.8012 119.471 64.1812 118.729 63.2625 117.907C62.6388 117.253 62.2829 116.389 62.265 115.485C62.265 114.566 62.7337 113.276 63.4762 111.99C63.9262 111.266 64.2787 110.486 64.53 109.665C64.6875 109.099 65.0175 108.18 65.2725 107.595L65.7225 106.522L65.8387 99.3562C65.8987 95.3924 66.015 91.7212 66.1125 91.1512C66.3675 89.5087 66.795 87.9074 67.3612 86.3474L67.7925 85.3124L67.1662 84.9412C66.6 84.5887 66.1312 84.1012 64.275 81.8924C61.9912 79.1962 58.9837 77.7112 54.7237 77.2049C53.3362 77.0699 51.93 76.9687 50.5237 76.9124C44.2725 76.6199 40.6987 75.3112 37.4775 72.1462C35.0737 69.7837 33.825 67.0274 33.3187 62.9662C32.6362 57.4762 31.875 54.6637 30.4687 52.3799C30.1221 51.8159 29.7228 51.2861 29.2762 50.7974L28.71 50.2312L27.4612 51.0337C26.7787 51.4837 25.8187 52.0499 25.35 52.3049C23.7862 53.1637 22.3012 54.1199 20.8762 55.1549C17.3812 57.6937 13.5712 60.8774 11.4825 62.9662C10.545 63.9037 10.0575 64.3124 9.83998 64.2749C8.41498 64.0612 9.50623 57.8887 11.8312 53.2387C14.8012 47.2424 19.8 41.7149 25.5825 37.9837C30.33 34.9162 38.0062 30.6974 41.5575 29.2124C47.865 26.5762 56.0287 23.7224 61.6162 22.1999C62.79 21.8662 63.51 21.5737 63.9975 21.2437C65.0925 20.4824 66.165 20.1112 67.395 20.0924C68.43 20.0737 68.5275 20.0549 69.525 19.3874C70.6987 18.6262 71.0475 18.5849 72.2212 18.9974L72.9825 19.2712L73.92 18.6262L74.8575 17.9999L76.2037 18.0187C77.2387 18.0374 77.7075 17.9999 78.1575 17.8049C78.7237 17.5499 78.7425 17.5124 78.9 16.5749C79.2525 14.5424 79.29 13.5262 79.0762 12.2962C78.8025 10.6762 78.765 4.38744 79.0387 3.15369C79.3312 1.82619 79.5262 1.55244 80.5237 1.06494C82.0087 0.341191 83.1225 0.127441 85.68 0.127441C88.8037 0.127441 90.3862 0.558691 91.56 1.69119C92.6137 2.70744 92.79 5.08869 92.2425 10.6762C91.9087 13.8974 91.8712 14.7974 91.9687 16.9049C92.0062 18.2512 92.1037 19.5224 92.145 19.6987C92.2237 20.0324 92.3025 20.0512 93.435 20.0699C94.5487 20.0887 94.7437 20.1487 95.7975 20.6962C96.8137 21.2249 97.575 21.8699 97.7325 22.3387C97.7512 22.4362 97.9275 22.4362 98.2387 22.3387C98.8425 22.1624 99.3712 22.3574 99.8025 22.8862C100.057 23.2199 100.211 23.2762 100.8 23.2762C101.602 23.2762 101.895 23.4712 102.559 24.4499C102.869 24.8892 103.295 25.2344 103.789 25.4474C104.884 25.9949 106.369 27.5174 106.935 28.7287C107.812 30.5249 107.989 32.6137 107.441 34.4887C107.246 35.1937 107.246 35.2124 107.655 35.8949C108.514 37.3612 108.829 39.1574 108.476 40.6799L108.281 41.5799L108.866 42.1649C111.776 45.0749 111.345 49.8224 107.794 54.0599C107.397 54.544 107.062 55.0756 106.796 55.6424C106.114 57.4574 105.33 58.7287 104.317 59.7824L103.282 60.8362H102.229C101.175 60.8362 99.69 60.4837 98.79 60.0149C98.4187 59.8199 98.4 59.8199 98.4787 60.0524C98.715 60.9112 99.3 64.4062 99.495 66.3412C99.8062 69.3112 99.7087 73.6274 99.3 75.4837C99.0013 76.8585 98.5008 78.1816 97.815 79.41C97.425 80.0362 97.4062 80.1712 97.4812 80.9324C97.5975 82.005 97.3462 83.8049 96.915 84.9937C96.3862 86.3812 96.1912 87.0262 96.075 87.7274C95.9775 88.3312 95.9775 88.3312 96.4087 88.3312C96.975 88.3312 97.2862 88.6649 97.2862 89.3287C97.2862 89.6212 97.0312 91.2037 96.72 92.8237C95.8612 97.3762 95.8012 97.8824 95.8012 102.296C95.7825 106.849 95.7825 106.807 96.8175 107.49L99.1425 108.994C101.143 110.321 103.285 111.422 105.529 112.275C108.791 113.565 109.241 113.895 109.241 114.99C109.241 115.477 109.144 115.654 108.735 116.044C107.486 117.255 105.022 117.529 100.061 117C97.4832 116.758 94.8955 116.635 92.3062 116.629C85.47 116.531 84.4725 116.295 83.5762 114.596C83.07 113.621 83.1675 112.35 83.8687 110.261C84.18 109.342 84.4537 108.405 84.69 107.449C85.1587 105.184 84.8475 102.487 83.7525 99.4424L82.815 96.8437C81.8962 94.2075 81.39 89.3812 81.9375 88.2899C82.035 88.0762 82.2112 88.035 82.68 88.0537L83.265 88.1137L83.7525 87.0974C84.1237 86.2949 84.5325 85.77 85.6462 84.6562L87.0712 83.2312L86.9925 82.3124C86.9325 81.4349 85.7812 77.1749 85.6237 77.1937C85.5637 77.1937 85.2525 77.6249 84.9 78.1687C84.0412 79.4587 82.1475 81.4499 81.0712 82.1737C80.6025 82.4849 80.2125 82.8562 80.2125 82.9762C80.1937 83.505 79.7437 84.5399 79.1962 85.2599C78.6675 85.9649 78.63 86.0812 78.7087 86.7037C78.8437 87.6224 78.5512 90.5699 78.2025 92.1149C77.8864 93.2621 77.4541 94.3741 76.9125 95.4337C75.5662 98.2274 74.55 100.725 74.295 101.88C74.1108 102.992 73.9931 104.114 73.9425 105.24C73.8825 106.567 73.7475 107.857 73.65 108.131C73.515 108.502 73.515 108.795 73.6312 109.361C73.7287 109.77 73.7887 110.689 73.7662 111.412C73.7475 112.41 73.8262 113.055 74.1187 114.225C74.625 116.216 74.7225 117.469 74.49 118.211C74.3325 118.68 74.1787 118.856 73.65 119.111C72.4762 119.715 69.1575 120.049 67.3612 119.737L67.365 119.745ZM72.1087 118.144C72.7912 117.949 73.38 117.364 73.38 116.835C73.38 116.599 73.185 115.916 72.9487 115.312C72.48 114.161 71.6775 111.112 71.6775 110.606C71.6775 110.351 71.6962 110.332 72.0862 110.546L72.5175 110.782V110.235C72.4549 109.73 72.3431 109.233 72.1837 108.75C71.8125 107.636 71.775 107.617 69.4087 107.479L67.8075 107.4L67.2225 107.966C66.9008 108.297 66.6189 108.665 66.3825 109.061C66.1275 109.567 66.03 110.332 66.1875 110.505C66.225 110.565 66.6187 110.505 67.0462 110.407C67.3 110.332 67.5618 110.287 67.8262 110.272C67.8262 110.291 67.395 110.644 66.8512 111.015C64.5075 112.774 63.6862 113.846 63.6862 115.215C63.6862 116.64 65.0325 117.754 67.1437 118.087C68.5875 118.301 71.4 118.361 72.105 118.147L72.1087 118.144ZM103.886 115.819C104.471 115.114 104.392 114.394 103.65 113.572C103.219 113.141 102.731 112.77 102.184 112.477C101.636 112.185 101.089 111.851 100.541 111.502C99.551 110.861 98.5338 110.261 97.4925 109.706C96.5925 109.219 95.715 108.709 94.8562 108.165L94.5037 107.891V102.521C94.5037 97.2299 94.485 97.1512 94.2112 97.2299C92.8425 97.6012 90.5775 97.7775 87.7087 97.7174L84.6037 97.6799L85.0537 98.7749C85.8937 100.845 86.325 103.62 86.325 106.804C86.325 107.996 86.2462 108.424 85.9537 109.264C85.7962 109.672 85.6612 110.085 85.5225 110.494C85.4625 110.67 85.68 110.805 86.4787 111.041C87.0637 111.217 87.9225 111.394 88.4137 111.45L89.3137 111.547L89.2162 112.447C89.1187 113.464 89.235 114.536 89.49 114.87C89.6475 115.065 90.2325 115.144 92.9475 115.26C94.9987 115.357 97.2262 115.571 98.9812 115.826C100.504 116.062 102.146 116.257 102.634 116.257C103.455 116.276 103.534 116.239 103.882 115.826L103.886 115.819ZM72.6187 106.68C72.6975 106.62 72.8137 105.566 72.855 104.317C73.0125 100.822 73.1475 100.312 74.9062 96.3674C76.35 93.1462 77.115 90.1387 77.055 88.0087L77.0175 86.7374L76.47 87.2662C75.3375 88.3987 76.1175 86.6212 77.4675 85.0387C78.4837 83.8274 78.8362 83.1637 78.99 82.0912C79.0687 81.66 79.2262 81.4462 79.89 80.9399C82.3735 79.0639 84.2871 76.5349 85.4175 73.6349C85.6912 72.9299 86.3925 70.5299 86.9812 68.3024C88.0762 64.1812 88.6612 62.4037 89.19 61.6424C89.385 61.3499 89.4637 61.2899 89.4262 61.4849C89.143 62.5323 88.9214 63.5954 88.7625 64.6687C88.605 65.6249 88.3125 67.4999 88.1175 68.8087C87.7462 71.4862 87.3562 73.2037 86.8275 74.5312L86.475 75.4312L87.4125 77.8537C88.3875 80.3324 88.8375 82.1324 88.9162 83.8687L88.9762 84.8437L88.215 85.0012C87.2102 85.179 86.3136 85.7396 85.7137 86.5649C85.05 87.5212 84.6787 88.3049 84.855 88.4774C84.9337 88.5562 85.89 88.7324 86.985 88.8674C88.6837 89.0624 89.3287 89.0624 91.575 88.9274C92.55 88.8899 93.51 88.7924 94.4662 88.6537C94.68 88.575 94.8975 88.1474 95.2462 87.0337C96.0487 84.4762 96.2025 83.5762 96.105 81.7799L96.0262 80.1974L96.435 79.6687C97.3912 78.4575 98.1337 76.2712 98.445 73.7099C98.8162 70.5862 98.1337 64.0424 96.8625 58.4174C96.2587 55.7399 96.0037 54.1387 96.0037 52.9687V51.9337L95.0475 52.0312C91.6087 52.4024 87.45 52.3049 84.9112 51.7762C83.5237 51.5024 80.0287 50.4674 79.2675 50.1337L78.6637 49.8599L78.585 50.5424C78.525 50.9137 78.4687 51.2849 78.39 51.6749C78.2737 52.0837 78.3112 52.1812 79.035 52.8862C79.935 53.8049 80.2087 54.2737 80.2087 54.8962C80.2087 55.2862 79.995 55.6012 78.9 56.7337C78.1149 57.5715 77.2438 58.3244 76.3012 58.9799L75.03 59.8387L74.4825 61.7324C72.5287 68.6662 72.1575 74.9737 73.4475 79.4849L73.7587 80.6174L73.1325 81.3974C70.7887 84.3449 69.4012 86.5912 69.1875 87.8437C69.0625 88.4604 68.9187 89.0732 68.7562 89.6812C68.25 91.6162 67.8562 94.4474 67.6837 97.5149C67.5635 100.083 67.3948 102.648 67.1775 105.21L67.08 105.971L68.055 106.264C68.6025 106.44 69.4237 106.635 69.8925 106.714C70.77 106.849 72.3937 106.811 72.645 106.676L72.6187 106.68ZM91.5825 95.9362C93.105 95.8387 94.4925 95.6024 94.7662 95.3699C94.8825 95.2912 95.0212 94.8824 95.0587 94.4699L95.1562 93.7274L93.945 94.0012C92.9887 94.1962 92.0325 94.3124 91.0725 94.3912C88.7662 94.4887 86.445 94.4287 84.1575 94.1962C83.3962 94.0799 83.3962 94.0799 83.6287 95.0737C83.8237 95.8162 83.865 95.8537 85.8562 95.9924C87.1837 96.1087 89.04 96.09 91.5787 95.9324L91.5825 95.9362ZM90.3112 92.5387C92.3025 92.3624 94.785 91.9349 95.2725 91.6799C95.43 91.6012 95.565 91.3087 95.625 90.9749L95.8012 89.9399L95.8987 89.4524L95.4112 89.5499C93.2437 89.9999 91.6012 90.1349 88.32 90.1349C85.1175 90.1349 84.7462 90.1162 83.9062 89.8237C83.5834 89.6876 83.2397 89.6077 82.89 89.5874C82.755 89.6662 82.7325 90.7799 82.8525 91.5599C82.9312 92.0287 83.01 92.1074 83.4787 92.2424C84.9637 92.6512 87.465 92.7487 90.315 92.5162L90.3112 92.5387ZM54.0637 74.9212C59.0625 73.4774 65.6062 69.2362 70.9575 63.9262C72.6975 62.1862 72.9112 61.9537 73.1437 61.1737L73.455 60.1762C73.4925 60.0974 73.1812 59.9624 72.7725 59.8649C71.7 59.6099 70.8787 58.9874 70.8787 58.4212C70.8787 58.0874 70.6837 57.7574 70.1175 57.1499C69.1987 56.1149 68.9662 55.6649 68.8687 54.6712L68.79 53.8687L67.695 53.0887C67.0687 52.6387 64.8825 51.4274 62.5575 50.2574C60.7872 49.3938 59.0544 48.4555 57.3637 47.4449C55.41 46.1362 54.1012 44.5724 53.3587 42.7199C53.2237 42.3487 53.0475 42.0374 52.9875 42.0374C52.83 42.0374 48.435 46.2749 46.56 48.2662C41.9325 53.1487 38.7487 57.3862 36.735 61.3124C36.2287 62.2874 35.6812 63.4424 35.5237 63.8699L35.2312 64.6499L35.5837 65.9587C35.7975 66.6637 36.2475 67.8149 36.6 68.4974C37.83 70.9199 39.2962 72.3824 41.7187 73.575C44.3175 74.8649 46.62 75.3149 50.4675 75.255C52.5375 75.2362 53.145 75.1762 54.06 74.9025L54.0637 74.9212ZM14.61 57.7912C17.8912 54.8812 22.4212 51.6974 27.9712 48.3974C31.605 46.2299 45.6487 39.1987 52.1137 36.3262C53.2875 35.7974 54.3412 35.3099 54.4575 35.2537C54.5737 35.1749 54.9075 34.3349 55.2187 33.3974C56.5875 29.0624 57.27 28.2037 59.7487 27.6374C60.06 27.5587 60.1387 27.4612 60.1387 27.1499C60.1387 26.5837 60.5287 25.2749 60.8625 24.6899C61.1175 24.2399 61.1175 24.2212 60.9 24.2812C60.765 24.3187 59.9437 24.5549 59.085 24.8099C47.1712 28.2487 36.7612 32.8162 27.7762 38.5199C18.1875 44.6137 12.66 51.9187 11.0587 60.6674L10.9425 61.3124L12.1162 60.1612C12.7425 59.5162 13.875 58.4624 14.6175 57.8174L14.61 57.7912ZM102.99 59.4524C103.946 58.9649 105.431 56.7187 105.979 54.9412C106.136 54.3149 106.447 53.7299 106.897 53.2424C108.341 51.6412 109.534 48.7312 109.552 46.7399C109.552 43.6349 107.794 42.4424 105.236 43.7699C104.902 43.9274 104.632 44.0437 104.591 44.0062C104.456 43.8712 105.176 43.1662 106.057 42.6187C107.209 41.8574 107.426 41.4074 107.426 39.7874C107.443 38.478 107.054 37.1955 106.312 36.1162C105.96 35.5874 105.825 35.2387 105.881 35.0212L106.234 33.7124C106.721 31.9724 106.545 29.9812 105.784 28.7137C104.651 26.8012 103.264 25.8637 101.329 25.7062L100.196 25.6274L100.86 26.3699C102.832 28.4999 103.789 31.1737 103.399 33.4612C103.204 34.6349 103.027 34.8674 101.895 35.3174L101.231 35.5912L101.31 36.4912C101.445 37.9574 101.194 39.0299 100.256 41.0024C99.7875 41.9999 99.435 42.8962 99.4762 42.9937C99.5925 43.3274 100.882 43.9499 101.899 44.2049L102.896 44.4412L102.27 44.6549C101.449 44.9099 101.272 45.2812 101.272 46.6274C101.272 47.8574 101.449 48.3674 102.345 49.7137C102.754 50.2987 103.027 50.9062 103.069 51.2549C103.147 51.8024 103.129 51.8399 102.679 51.9974C102.169 52.1406 101.644 52.2261 101.115 52.2524C99.2775 52.3687 99.1425 52.4287 98.3212 53.2087C97.5787 53.9137 97.56 53.9512 97.56 54.7312C97.56 55.8037 97.9687 57.9749 98.2237 58.2674C98.5575 58.6199 100.41 59.5387 101.134 59.6737C101.758 59.8304 102.418 59.7544 102.99 59.4599V59.4524ZM75.9375 57.9899C77.13 57.0524 78.0675 56.1149 78.5925 55.3124C78.9262 54.8249 78.945 54.7274 78.7875 54.3149C78.5137 53.6887 76.7175 52.0687 75.72 51.5812C75.0553 51.2834 74.3522 51.0802 73.6312 50.9774L72.4012 50.8199L71.64 49.8637C70.0575 47.9099 69.18 46.3874 67.9275 43.4362C66.8325 40.9349 65.8762 39.4724 64.3537 38.0249C63.7275 37.4399 63.2812 36.9524 63.3187 36.9524C63.3975 36.9524 64.14 37.3237 64.9987 37.7737C66.4237 38.5349 66.6 38.5949 67.245 38.4974C69.57 38.2237 71.6212 35.5499 72.3637 31.7999C72.5775 30.7462 73.0087 29.6699 73.4587 29.0249C73.4775 29.0062 74.3775 29.5912 75.4312 30.3524C78.1087 32.2462 78.6937 32.5387 80.2162 32.5987C81.2137 32.6362 81.78 32.5612 83.5762 32.1299C87.405 31.1924 91.545 30.8212 94.065 31.1549C95.49 31.3499 97.5412 31.9762 99.0637 32.6962C100.567 33.4012 100.86 33.4387 101.347 33.0074C101.756 32.6549 101.756 32.5987 101.756 31.2899C101.737 29.3549 101.032 27.2662 99.96 26.0174C99.4125 25.3724 97.8712 24.3187 96.345 23.5162C95.8024 23.2284 95.2624 22.9359 94.725 22.6387C94.0012 22.2074 93.1837 22.2674 90.9562 22.8524C88.3762 23.5162 87.6937 23.5162 84.7462 22.7549C82.245 22.1287 82.0912 22.1099 79.6275 22.4999C78.3187 22.6949 75.0375 22.5787 73.9425 22.2862C73.395 22.1287 72.8475 21.9749 72.3225 21.7799C71.3662 21.4087 69.705 21.3487 68.2012 21.6224C65.2125 22.1512 62.9475 23.7712 62.1262 25.9762C61.695 27.0899 61.755 27.6187 62.3212 27.9674C63.2212 28.5337 64.41 30.0787 64.41 30.6824C64.41 30.7199 64.1175 30.4687 63.7837 30.1162C62.9437 29.2387 62.1825 28.8449 61.2825 28.8449C60.7002 28.8611 60.134 29.0396 59.6476 29.3603C59.1613 29.681 58.7742 30.1311 58.53 30.6599C58.2672 31.35 58.0455 32.0549 57.8662 32.7712C57.3187 34.7624 56.8312 35.8199 55.7962 37.2262C54.8775 38.4974 54.7425 39.0637 55.0725 40.4887C55.8937 44.0812 57.3187 45.5287 63.2737 48.9074C66.3975 50.6849 67.9987 51.6824 69.1725 52.5599C70.0725 53.2237 70.0912 53.2649 70.0125 53.7712C69.8362 54.9449 70.5787 56.2124 72.045 57.2474C72.4162 57.5024 72.6487 57.7762 72.6487 57.9712C72.6487 58.3237 73.6462 58.8112 74.3662 58.8112C74.775 58.8112 75.09 58.6349 75.93 57.9899H75.9375ZM100.02 51.4049C102.285 51.4837 102.401 51.3074 101.194 49.9012C99.9225 48.4349 99.5737 47.2462 100.042 45.9374L100.237 45.4312L99.435 45.0412C99.1612 44.9062 98.8875 44.7674 98.6137 44.6699C98.4787 45.1987 98.34 45.7049 98.2237 46.2337C97.9312 47.4262 97.5787 50.5124 97.56 51.8212C97.56 51.9374 97.755 51.8999 98.0887 51.6862C98.5575 51.4124 98.7937 51.3749 100.024 51.4124L100.02 51.4049ZM92.4225 51.2887C93.7912 51.2099 95.1975 51.1124 95.5687 51.0524L96.2512 50.9549L96.33 48.7087C96.4462 45.5062 96.915 43.6124 98.3025 40.5824C99.2775 38.4337 99.7087 36.5587 99.495 35.1524C99.4162 34.5487 99.3787 34.5074 98.5575 34.1549C97.0537 33.5578 95.4876 33.1314 93.8887 32.8837C92.3475 32.6699 87.8137 32.7862 86.115 33.1199C85.41 33.2362 84.1237 33.5099 83.265 33.7237C81.135 34.2112 80.0025 34.1549 78.3825 33.4499C76.7812 32.7449 75.765 32.1037 74.8087 31.2037C74.0475 30.4987 73.9687 30.4612 73.7737 30.6974C73.6162 30.8737 73.5375 31.4024 73.4812 32.5349C73.4212 34.2749 73.1475 35.1899 72.3862 36.4199C72.2171 36.673 72.0727 36.9417 71.955 37.2224C71.955 37.2824 72.54 37.9649 73.2637 38.7074C75.765 41.3062 76.995 41.9699 78.9675 41.8312C79.6125 41.7712 80.0625 41.7937 80.0625 41.8687C80.0625 42.0262 78.7912 43.0199 78.2662 43.2937C78.0112 43.4287 77.955 43.5674 77.9925 43.8599L78.3037 45.9112C78.48 47.0849 78.615 47.6287 78.7912 47.7862C79.26 48.1762 81.6825 49.4287 83.205 50.0512C85.1962 50.8537 86.2912 51.1462 87.8137 51.2812C89.6887 51.4387 89.7262 51.4387 92.4225 51.2812V51.2887ZM76.2712 49.1399C76.3087 49.0799 76.1737 47.9474 75.9187 46.6387C75.6075 44.8612 75.4312 44.2162 75.2362 44.0399C75.1012 43.9237 74.3775 43.4137 73.6537 42.8887C72.7028 42.2049 71.8018 41.4542 70.9575 40.6424L69.6112 39.3149L68.8875 39.6862L68.1262 40.0949C68.1903 40.4 68.295 40.6952 68.4375 40.9724C68.6512 41.4412 69.0825 42.5924 69.3937 43.5299C70.215 45.9712 70.86 47.1449 72.48 49.2712L73.0837 50.0737L74.235 50.2499C74.88 50.3474 75.525 50.4862 75.7012 50.5424C75.975 50.6587 76.0125 50.6024 76.0912 49.9762C76.1287 49.7024 76.1887 49.4099 76.2675 49.1362L76.2712 49.1399ZM101.017 24.8437C102.015 24.7462 102.191 24.6074 101.76 24.1612C101.486 23.8874 100.86 23.8687 100.354 24.1012C100.02 24.2587 99.945 24.2174 99.4162 23.6512C98.8687 23.0474 98.8312 23.0249 98.145 23.1037C97.5187 23.1824 97.4212 23.1637 97.3425 22.9087C97.0986 22.4898 96.7955 22.1084 96.4425 21.7762C95.9989 21.2722 95.4443 20.8781 94.8225 20.6249C93.6112 20.1562 92.9287 20.2162 91.7737 20.8612C88.4325 22.6762 88.5712 22.6574 85.3462 21.8362C82.3387 21.0749 80.0925 20.2949 79.3687 19.8037C78.765 19.3949 77.475 18.9449 76.3987 18.8062C75.5962 18.6899 75.09 18.8662 74.3287 19.4887L73.92 19.8224L74.2912 20.4674C74.7975 21.3674 74.7412 21.4237 73.98 20.7599C73.1587 20.0774 72.1837 19.6087 71.5575 19.5862C71.1075 19.5862 69.78 20.1712 69.6225 20.4262C69.5625 20.5049 69.975 20.6024 70.5225 20.6399C71.0887 20.6999 71.8687 20.8949 72.3975 21.1087C73.7662 21.6937 74.4675 21.8887 75.7162 22.0087C77.085 22.1437 79.5637 21.9899 79.8562 21.7537C80.0137 21.6187 80.4412 21.5962 81.3412 21.6749C82.5337 21.7537 83.0212 21.8699 85.8525 22.6312C87.495 23.0812 88.6462 23.0399 90.6 22.5149C91.5 22.2599 92.6325 22.0087 93.1012 21.9487C93.9037 21.8699 94.0575 21.9112 95.31 22.4774C97.3012 23.3774 98.3587 23.9437 98.9437 24.4687C99.5287 24.9749 99.6075 24.9749 101.014 24.8587L101.017 24.8437ZM89.8837 21.4274L91.0762 20.8012L91.0387 19.5899C91.02 18.7499 90.9787 17.9287 90.9412 17.1112L90.8437 15.8624L89.6512 16.7812C88.9462 17.3287 88.2637 17.7374 87.9712 17.7974C87.1125 17.9549 82.875 17.7974 82.4812 17.5837C81.9567 17.1962 81.4661 16.7646 81.015 16.2937L79.92 15.1799L79.9012 15.8437C79.9012 16.1962 79.8637 16.7999 79.785 17.1712C79.6875 17.8762 79.6875 17.8949 80.4487 18.8512C80.8575 19.3799 81.1912 19.8487 81.1912 19.9049C81.1912 20.2762 86.835 22.0349 88.1062 22.0537C88.515 22.0537 89.025 21.8774 89.8837 21.4274ZM87.6187 16.9912C89.025 16.7174 89.7075 15.7012 90.2362 13.1249C90.7837 10.3499 91.0575 5.99619 90.8025 4.13994C90.5662 2.45994 88.6912 1.71744 85.1175 1.83369C82.89 1.91244 81.9712 2.12619 81.21 2.77119C80.7412 3.16119 80.7412 3.20244 80.5275 5.05494C80.1375 8.60994 80.7225 13.6687 81.7387 15.5624C82.2262 16.4812 82.6575 16.8112 83.5537 16.9687C84.57 17.1449 86.7375 17.1449 87.615 16.9874L87.6187 16.9912Z"
              fill="white"/>
    </g>
    <g id="js">
        <path d="M7.5 7.5H112.5V112.5H7.5V7.5Z" fill="#F5DE19"/>
        <path d="M78.0338 89.5312C78.9284 91.3485 80.3183 92.8759 82.0434 93.9375C83.7684 94.9991 85.7584 95.5515 87.7838 95.5313C91.8713 95.5313 94.485 93.4875 94.485 90.6562C94.485 87.2812 91.8 86.0738 87.3 84.105L84.8325 83.0475C77.7075 80.0138 72.9825 76.215 72.9825 68.1825C72.9825 60.7838 78.6075 55.1475 87.4313 55.1475C90.2877 54.9412 93.1416 55.5805 95.637 56.9856C98.1324 58.3907 100.159 60.4994 101.464 63.0488L93.75 67.98C93.2476 66.716 92.3728 65.6345 91.2416 64.879C90.1105 64.1236 88.7764 63.7298 87.4163 63.75C86.8229 63.6906 86.2236 63.7555 85.6567 63.9404C85.0897 64.1254 84.5675 64.4265 84.1234 64.8244C83.6792 65.2224 83.3228 65.7085 83.0769 66.2518C82.831 66.7951 82.7009 67.3837 82.695 67.98C82.695 70.9388 84.5288 72.1388 88.7625 73.98L91.23 75.0375C99.615 78.6338 104.355 82.2975 104.355 90.5363C104.355 99.42 97.3763 104.287 88.005 104.287C84.3537 104.52 80.713 103.691 77.5223 101.901C74.3317 100.11 71.7274 97.4342 70.0238 94.1963L78.0338 89.5312ZM43.1775 90.3863C44.7263 93.135 46.1363 95.46 49.5263 95.46C52.7663 95.46 54.8138 94.1925 54.8138 89.2612V55.71H64.68V89.3925C64.68 99.6075 58.68 104.257 49.9463 104.257C46.8591 104.426 43.7931 103.657 41.1513 102.051C38.5096 100.444 36.4157 98.0761 35.145 95.2575L43.1775 90.3863Z"
              fill="black"/>
    </g>
    <g id="babel">
        <g clip-path="url(#clip0_2_5874)">
            <path d="M0 75.7821C0 81.9781 5.08028 87 11.3468 87H76.6528C82.9204 87 88 81.9774 88 75.7821V11.2182C88 5.02187 82.9197 0 76.6532 0H11.3472C5.07959 0 0 5.02255 0 11.2179V75.7818V75.7821Z"
                  fill="#563D7C"/>
            <path d="M36.4918 38.4832V26.1629H47.4612C48.5062 26.1629 49.5134 26.2489 50.4834 26.4212C51.4535 26.5931 52.3119 26.9003 53.0581 27.3431C53.8041 27.786 54.4012 28.4007 54.8491 29.1875C55.2966 29.9746 55.5208 30.9829 55.5208 32.2121C55.5208 34.4255 54.8491 36.0241 53.5057 37.0076C52.1627 37.9915 50.4463 38.4832 48.3567 38.4832H36.4918ZM24.7758 17.1621V69.8379H50.5955C52.9835 69.8379 55.3094 69.5429 57.5729 68.9526C59.8365 68.3623 61.8513 67.4525 63.6174 66.223C65.3833 64.9934 66.7889 63.407 67.8335 61.4645C68.8785 59.5216 69.4007 57.2222 69.4007 54.5663C69.4007 51.2709 68.5922 48.4553 66.9755 46.1192C65.3585 43.7828 62.9083 42.1474 59.6248 41.2129C62.0128 40.0819 63.8165 38.6307 65.0354 36.8601C66.254 35.0895 66.8635 32.8765 66.8635 30.2203C66.8635 27.7612 66.453 25.6956 65.6322 24.0232C64.8113 22.3512 63.6546 21.0108 62.162 20.0025C60.6698 18.9942 58.8789 18.2686 56.7892 17.8262C54.6999 17.3833 52.3864 17.1621 49.8492 17.1621H24.7758ZM36.4918 60.8371V46.3771H49.2521C51.7894 46.3771 53.8292 46.9548 55.3716 48.111C56.9136 49.2668 57.685 51.1971 57.685 53.9023C57.685 55.2797 57.4485 56.4107 56.9759 57.296C56.5032 58.1813 55.869 58.8823 55.0729 59.3986C54.2771 59.9151 53.3565 60.2839 52.3118 60.5054C51.2668 60.7263 50.1727 60.8371 49.0284 60.8371H36.4918Z"
                  fill="white"/>
        </g>
        <defs>
            <clipPath id="clip0_2_5874">
                <rect width="88" height="87" fill="white"/>
            </clipPath>
        </defs>
    </g>
    <g id="css">
        <path d="M22.1325 101.154L13.71 7.4375H106.29L97.8562 101.139L59.9437 111.562L22.1325 101.154Z" fill="#1572B6"/>
        <path d="M60 103.597L90.6375 95.1739L97.845 15.1018H60V103.597Z" fill="#33A9DC"/>
        <path d="M60 49.054H75.3375L76.395 37.2842H60V25.7896H89.0625L88.785 28.8724L85.9387 60.5487H60V49.054Z"
              fill="white"/>
        <path d="M60.0713 78.9045L60.0188 78.9193L47.1113 75.4609L46.2863 66.2942H34.65L36.2738 84.3413L60.015 90.8788L60.0713 90.864V78.9045Z"
              fill="#EBEBEB"/>
        <path d="M74.3513 60.0615L72.9563 75.4534L60.03 78.9119V90.8714L83.79 84.3412L83.9663 82.4001L85.98 60.0615H74.3513Z"
              fill="white"/>
        <path d="M60.0413 25.7896V37.2842H32.0438L31.8113 34.6997L31.2825 28.8724L31.005 25.7896H60.0413ZM60 49.054V60.5487H47.2538L47.0213 57.9642L46.4963 52.1369L46.2188 49.054H60Z"
              fill="#EBEBEB"/>
    </g>
    <g id="vs">
        <path d="M101.535 17.605L81.354 7.88899C80.2143 7.33948 78.9319 7.15814 77.6845 7.37011C76.4372 7.58208 75.2867 8.17686 74.3925 9.07199L8.32998 69.3C7.52845 70.0273 7.04865 71.0432 6.99614 72.1243C6.94363 73.2053 7.32271 74.2629 8.04998 75.0645C8.13748 75.159 8.22498 75.25 8.31948 75.334L13.713 80.234C14.4178 80.8754 15.3249 81.2497 16.277 81.2919C17.229 81.3341 18.1657 81.0416 18.9245 80.465L98.497 20.125C99.098 19.6689 99.8144 19.3897 100.566 19.3186C101.317 19.2476 102.073 19.3877 102.749 19.7231C103.424 20.0585 103.993 20.5758 104.391 21.217C104.789 21.8581 105 22.5975 105 23.352V23.1175C105 21.9656 104.675 20.8372 104.062 19.862C103.449 18.8868 102.573 18.1045 101.535 17.605Z"
              fill="#0065A9"/>
        <path d="M101.535 94.395L81.354 104.115C80.214 104.662 78.9319 104.843 77.6849 104.631C76.4379 104.419 75.2875 103.825 74.3925 102.932L8.32998 42.7C7.52845 41.9727 7.04865 40.9568 6.99614 39.8758C6.94363 38.7947 7.32271 37.7371 8.04998 36.9355C8.13748 36.841 8.22498 36.75 8.31948 36.666L13.713 31.766C14.4185 31.1219 15.3277 30.7459 16.2821 30.7037C17.2365 30.6615 18.1754 30.9557 18.935 31.535L98.497 91.875C99.098 92.3311 99.8144 92.6104 100.566 92.6814C101.317 92.7524 102.073 92.6123 102.749 92.2769C103.424 91.9415 103.993 91.4242 104.391 90.783C104.789 90.1419 105 89.4025 105 88.648V88.9C104.996 90.0488 104.669 91.1733 104.057 92.1451C103.444 93.1168 102.57 93.8965 101.535 94.395Z"
              fill="#007ACC"/>
        <path d="M81.354 104.115C80.214 104.662 78.932 104.843 77.685 104.631C76.438 104.419 75.2876 103.825 74.3925 102.932C74.8952 103.428 75.533 103.764 76.2261 103.899C76.9193 104.035 77.6369 103.962 78.289 103.691C78.9412 103.42 79.4988 102.963 79.8921 102.376C80.2855 101.79 80.4969 101.1 80.5 100.394V11.606C80.5006 10.8965 80.2906 10.2028 79.8966 9.61281C79.5026 9.02277 78.9424 8.56294 78.2868 8.29158C77.6313 8.02022 76.91 7.94953 76.2142 8.08846C75.5184 8.2274 74.8796 8.56971 74.3785 9.07204C75.2729 8.17723 76.4232 7.58242 77.6703 7.36986C78.9174 7.1573 80.1998 7.3375 81.34 7.88554L101.518 17.5875C102.559 18.0845 103.438 18.8658 104.054 19.8412C104.671 20.8166 104.998 21.9463 105 23.1V88.9C105 90.0528 104.675 91.1823 104.061 92.1582C103.448 93.1341 102.571 93.9168 101.532 94.416L81.354 104.115Z"
              fill="#1F9CF0"/>
    </g>
    <g id="html">
        <path d="M22.1325 102.004L13.7063 7.5H106.294L97.8563 101.989L59.9438 112.5L22.1325 102.004Z" fill="#E44F26"/>
        <path d="M60 104.468L90.6375 95.9738L97.845 15.2288H60V104.468Z" fill="#F1662A"/>
        <path d="M60 50.2763H44.6625L43.605 38.4075H60V26.8163H30.9375L31.215 29.9288L34.0613 61.8675H60V50.2763ZM60 80.3775L59.9475 80.3925L47.04 76.9088L46.215 67.665H34.5787L36.2025 85.86L59.9475 92.4525L60 92.4375V80.3775Z"
              fill="#EBEBEB"/>
        <path d="M59.9587 50.2763V61.8675H74.2312L72.8887 76.9013L59.9587 80.3888V92.4488L83.7225 85.86L83.895 83.9025L86.6175 53.3888L86.9025 50.2763H59.9587ZM59.9587 26.8163V38.4075H87.9562L88.1887 35.805L88.7175 29.9288L88.995 26.8163H59.9587Z"
              fill="white"/>
    </g>
    <g id="sass">
        <path d="M100.463 49.8709C96.3928 49.8917 92.8551 50.8637 89.8932 52.3005C88.806 50.1663 87.7193 48.265 87.5278 46.8703C87.3144 45.2436 87.0589 44.2503 87.3143 42.3064C87.5703 40.3625 88.721 37.5944 88.6995 37.3832C88.6785 37.1721 88.4436 36.1788 86.0996 36.158C83.7556 36.1367 81.7311 36.6016 81.4966 37.2142C81.2622 37.8268 80.8148 39.2215 80.5163 40.658C80.1114 42.7713 75.8284 50.314 73.3779 54.2653C72.5891 52.7233 71.9072 51.3707 71.7578 50.2932C71.5448 48.6665 71.2889 47.6732 71.5448 45.7293C71.8007 43.7854 72.9515 41.0177 72.93 40.8061C72.9085 40.595 72.6741 39.6017 70.3301 39.5809C67.9856 39.5596 65.9611 40.0245 65.7271 40.6371C65.4927 41.2502 65.2367 42.6866 64.7468 44.0813C64.2565 45.476 58.5667 58.0693 57.075 61.3227C56.4722 62.6396 55.8399 63.9429 55.1784 65.2318C55.1784 65.2318 55.157 65.2953 55.093 65.4008C54.8852 65.805 54.6722 66.2065 54.4541 66.6052V66.6261C54.1342 67.197 53.7932 67.7249 53.6228 67.7249C53.4948 67.7249 53.2604 66.2038 53.6653 64.133C54.5176 59.7594 56.5421 52.9558 56.5211 52.7233C56.5211 52.5964 56.9046 51.4133 55.1999 50.8003C53.5373 50.1876 52.9409 51.2017 52.7915 51.2017C52.6425 51.2017 52.5356 51.5611 52.5356 51.5611C52.5356 51.5611 54.3901 43.9123 48.9983 43.9123C45.6315 43.9123 40.9856 47.5677 38.6841 50.8637C36.0678 52.2754 33.4537 53.6911 30.8418 55.1108C29.5851 55.8082 28.2849 56.5055 27.0701 57.1603C26.9847 57.076 26.8997 56.97 26.8142 56.8857C20.2932 49.9765 8.2318 45.0954 8.74319 35.8199C8.93513 32.4392 10.1069 23.5647 31.9076 12.789C49.8506 4.02008 64.129 6.44974 66.6009 11.8378C70.1382 19.5292 58.9506 33.8126 40.4102 35.8829C33.3353 36.665 29.6271 33.9603 28.6898 32.9462C27.7095 31.8895 27.5601 31.8261 27.1976 32.0377C26.6012 32.3549 26.9847 33.3055 27.1976 33.8547C27.752 35.2911 30.032 37.8268 33.8892 39.0738C37.2989 40.1722 45.5886 40.7853 55.6258 36.9396C66.8564 32.629 75.6364 20.6489 73.058 10.6126C70.4791 0.428159 53.4308 -2.93131 37.2989 2.75224C27.7095 6.13346 17.3098 11.4577 9.82995 18.3882C0.943427 26.6283 -0.463244 33.7913 0.112129 36.7919C2.17964 47.4408 16.9904 54.3713 22.9146 59.5057C22.6161 59.6747 22.3387 59.8229 22.1047 59.9497C19.1424 61.4075 7.84791 67.26 5.03502 73.4511C1.83871 80.4659 5.54687 85.4951 7.99735 86.1707C15.6052 88.2628 23.426 84.5019 27.624 78.2895C31.8221 72.0776 31.3107 64.0061 29.3716 60.3086C29.3502 60.2665 29.3291 60.2239 29.2862 60.1817C30.0535 59.7381 30.8418 59.2732 31.6091 58.8296C33.0194 58.003 34.4476 57.2068 35.8927 56.4417C35.1679 58.4069 34.635 60.7522 34.3795 64.133C34.0596 68.1055 35.7003 73.2607 37.8528 75.2889C38.8121 76.1771 39.9413 76.1979 40.6661 76.1979C43.1806 76.1979 44.3103 74.1271 45.5676 71.6762C47.1017 68.676 48.4869 65.1897 48.4869 65.1897C48.4869 65.1897 46.7608 74.6133 51.4492 74.6133C53.1539 74.6133 54.88 72.4157 55.6473 71.296V71.3168C55.6473 71.3168 55.6898 71.2534 55.7753 71.1057C55.9458 70.8311 56.0522 70.6616 56.0522 70.6616V70.6199C56.7341 69.4364 58.2687 66.753 60.5487 62.2947C63.4896 56.5477 66.324 49.3638 66.324 49.3638C66.324 49.3638 66.5799 51.1174 67.4532 54.0333C67.9651 55.7448 69.0299 57.6252 69.8827 59.4422C69.2008 60.3934 68.7744 60.9212 68.7744 60.9212L68.7959 60.9425C68.2416 61.6607 67.6452 62.4424 66.9843 63.2036C64.6614 65.95 61.8914 69.0988 61.5075 70.0069C61.0597 71.0844 61.1666 71.8665 62.0194 72.5004C62.6373 72.9653 63.7451 73.0283 64.8748 72.9653C66.9633 72.8171 68.4335 72.3101 69.1579 71.9934C70.2876 71.5919 71.6088 70.9788 72.8446 70.0703C75.125 68.401 76.5098 66.0135 76.3823 62.8656C76.3183 61.1329 75.7429 59.4001 75.0396 57.7729C75.253 57.4775 75.4445 57.1816 75.6579 56.8857C79.2591 51.6666 82.051 45.9405 82.051 45.9405C82.051 45.9405 82.3069 47.6941 83.1803 50.6104C83.6066 52.0894 84.4804 53.6953 85.2473 55.2585C81.859 57.9845 79.7705 61.1537 79.0247 63.2245C77.6824 67.0702 78.7262 68.8024 80.7083 69.2039C81.6031 69.3942 82.8818 68.9715 83.8196 68.57C85.0129 68.1898 86.4195 67.5351 87.7622 66.5627C90.0427 64.8938 92.2372 62.5693 92.1093 59.4214C92.0453 57.9845 91.6619 56.5685 91.129 55.1951C94.0059 54.0125 97.714 53.3572 102.445 53.9064C112.589 55.0895 114.592 61.3649 114.208 64.0066C113.824 66.6474 111.693 68.0843 110.991 68.5279C110.287 68.9719 110.053 69.1196 110.117 69.4364C110.202 69.9013 110.543 69.8804 111.14 69.7957C111.971 69.648 116.467 67.6615 116.659 62.8017C116.979 56.5898 111.012 49.8075 100.463 49.8709ZM22.2112 76.0289C18.844 79.6629 14.156 81.0364 12.1314 79.8746C9.95792 78.6276 10.8102 73.2607 14.9443 69.4155C17.4588 67.0702 20.6981 64.8933 22.8506 63.5625C23.3405 63.2666 24.0653 62.8443 24.9391 62.316C25.0881 62.2312 25.1736 62.1891 25.1736 62.1891L25.6849 61.8719C27.1976 67.3656 25.7489 72.2045 22.2112 76.0289ZM46.7183 59.5057C45.5461 62.3373 43.0956 69.5845 41.6039 69.1831C40.3252 68.845 39.5364 63.3514 41.348 57.9211C42.2643 55.1951 44.2034 51.9412 45.3331 50.6738C47.1657 48.6452 49.1903 47.9687 49.6802 48.7934C50.2985 49.8709 47.4427 57.7308 46.7183 59.5057ZM66.9418 69.0983C66.4515 69.3521 65.983 69.5211 65.7696 69.3942C65.6206 69.3095 65.983 68.9715 65.983 68.9715C65.983 68.9715 68.519 66.2672 69.5203 65.0415C70.0961 64.3233 70.7775 63.4782 71.5023 62.5271V62.8017C71.5023 66.0348 68.348 68.2111 66.9414 69.0983H66.9418ZM82.5409 65.5699C82.1785 65.3161 82.2425 64.471 83.4572 61.8298C83.9261 60.7944 85.0339 59.0621 86.9309 57.3928C87.1439 58.0688 87.2933 58.724 87.2719 59.3367C87.2504 63.4148 84.31 64.9359 82.5409 65.5699Z"
              fill="#CD6799"/>
    </g>
    <g id="vite">
        <path d="M28.6562 22.925C32.4771 7.64166 42.0292 0 57.3125 0C80.2375 0 83.1031 17.1937 94.5656 20.0594C102.207 21.9698 108.894 19.1042 114.625 11.4625C110.804 26.7458 101.252 34.3875 85.9688 34.3875C63.0438 34.3875 60.1781 17.1938 48.7156 14.3281C41.074 12.4177 34.3875 15.2833 28.6562 22.925ZM0 57.3125C3.82083 42.0292 13.3729 34.3875 28.6562 34.3875C51.5812 34.3875 54.4469 51.5812 65.9094 54.4469C73.551 56.3573 80.2375 53.4917 85.9688 45.85C82.1479 61.1333 72.5958 68.775 57.3125 68.775C34.3875 68.775 31.5219 51.5812 20.0594 48.7156C12.4177 46.8052 5.73125 49.6708 0 57.3125Z"
              fill="#44A8B3"/>
    </g>
    <g id="contacts-git-hub">
        <path fill-rule="evenodd" clip-rule="evenodd"
              d="M15 0C6.7125 0 0 6.7125 0 15C0 21.6375 4.29375 27.2437 10.2563 29.2313C11.0063 29.3625 11.2875 28.9125 11.2875 28.5188C11.2875 28.1625 11.2688 26.9813 11.2688 25.725C7.5 26.4188 6.525 24.8062 6.225 23.9625C6.05625 23.5312 5.325 22.2 4.6875 21.8438C4.1625 21.5625 3.4125 20.8687 4.66875 20.85C5.85 20.8313 6.69375 21.9375 6.975 22.3875C8.325 24.6562 10.4812 24.0187 11.3438 23.625C11.475 22.65 11.8688 21.9937 12.3 21.6187C8.9625 21.2437 5.475 19.95 5.475 14.2125C5.475 12.5813 6.05625 11.2313 7.0125 10.1813C6.8625 9.80625 6.3375 8.26875 7.1625 6.20625C7.1625 6.20625 8.41875 5.8125 11.2875 7.74375C12.4875 7.40625 13.7625 7.2375 15.0375 7.2375C16.3125 7.2375 17.5875 7.40625 18.7875 7.74375C21.6562 5.79375 22.9125 6.20625 22.9125 6.20625C23.7375 8.26875 23.2125 9.80625 23.0625 10.1813C24.0188 11.2313 24.6 12.5625 24.6 14.2125C24.6 19.9688 21.0938 21.2437 17.7563 21.6187C18.3 22.0875 18.7688 22.9875 18.7688 24.3937C18.7688 26.4 18.75 28.0125 18.75 28.5188C18.75 28.9125 19.0312 29.3813 19.7812 29.2313C22.759 28.2259 25.3465 26.3121 27.1796 23.7592C29.0127 21.2063 29.9991 18.1429 30 15C30 6.7125 23.2875 0 15 0Z"
              fill="#42446E"/>
    </g>
    <g id="js">
        <path d="M7.5 7.5H112.5V112.5H7.5V7.5Z" fill="#F5DE19"/>
        <path d="M78.0338 89.5312C78.9284 91.3485 80.3183 92.8759 82.0434 93.9375C83.7684 94.9991 85.7584 95.5515 87.7838 95.5313C91.8713 95.5313 94.485 93.4875 94.485 90.6562C94.485 87.2812 91.8 86.0738 87.3 84.105L84.8325 83.0475C77.7075 80.0138 72.9825 76.215 72.9825 68.1825C72.9825 60.7838 78.6075 55.1475 87.4313 55.1475C90.2877 54.9412 93.1416 55.5805 95.637 56.9856C98.1324 58.3907 100.159 60.4994 101.464 63.0488L93.75 67.98C93.2476 66.716 92.3728 65.6345 91.2416 64.879C90.1105 64.1236 88.7764 63.7298 87.4163 63.75C86.8229 63.6906 86.2236 63.7555 85.6567 63.9404C85.0897 64.1254 84.5675 64.4265 84.1234 64.8244C83.6792 65.2224 83.3228 65.7085 83.0769 66.2518C82.831 66.7951 82.7009 67.3837 82.695 67.98C82.695 70.9388 84.5288 72.1388 88.7625 73.98L91.23 75.0375C99.615 78.6338 104.355 82.2975 104.355 90.5363C104.355 99.42 97.3763 104.287 88.005 104.287C84.3537 104.52 80.713 103.691 77.5223 101.901C74.3317 100.11 71.7274 97.4342 70.0238 94.1963L78.0338 89.5312ZM43.1775 90.3863C44.7263 93.135 46.1363 95.46 49.5263 95.46C52.7663 95.46 54.8138 94.1925 54.8138 89.2612V55.71H64.68V89.3925C64.68 99.6075 58.68 104.257 49.9463 104.257C46.8591 104.426 43.7931 103.657 41.1513 102.051C38.5096 100.444 36.4157 98.0761 35.145 95.2575L43.1775 90.3863Z"
              fill="black"/>
    </g>
    <g id="react">
        <path d="M92.9008 32.7027C91.6983 32.2886 90.4857 31.905 89.2639 31.5522C89.4692 30.7106 89.6581 29.8791 89.8258 29.0622C92.5791 15.6483 90.7792 4.84172 84.6313 1.28369C78.7368 -2.12728 69.0969 1.42943 59.3611 9.93336C58.4016 10.773 57.4634 11.6368 56.5474 12.5239C55.9342 11.934 55.3101 11.3555 54.6756 10.7888C44.472 1.6961 34.2445 -2.13614 28.1033 1.43209C22.2141 4.85368 20.4703 15.0126 22.949 27.7253C23.1956 28.9844 23.4741 30.2369 23.7841 31.4818C22.3364 31.8947 20.9395 32.3341 19.6026 32.8019C7.63967 36.9881 0 43.5482 0 50.3528C0 57.3808 8.20153 64.4299 20.6614 68.7043C21.6715 69.0494 22.6901 69.3692 23.7161 69.6633C23.3829 71.0041 23.0871 72.354 22.829 73.7113C20.4659 86.2034 22.3112 96.1222 28.1845 99.5221C34.2507 103.033 44.4322 99.4247 54.3458 90.7267C55.1497 90.0196 55.9359 89.2924 56.7036 88.5459C57.6956 89.5065 58.7141 90.4392 59.7579 91.3429C69.3612 99.6364 78.8454 102.985 84.713 99.5762C90.7734 96.0549 92.7432 85.3994 90.186 72.4355C89.9845 71.4199 89.7586 70.4093 89.5084 69.4046C90.2235 69.192 90.9252 68.9732 91.6094 68.7455C104.563 64.4384 112.991 57.4747 112.991 50.3528C112.991 43.5234 105.104 36.919 92.9008 32.7027ZM90.0915 64.1473C89.4736 64.3524 88.8398 64.5504 88.1936 64.7431C86.7636 60.1995 84.8339 55.3683 82.4721 50.3763C84.7258 45.5035 86.5813 40.7339 87.9712 36.2199C89.1271 36.5557 90.2486 36.9097 91.33 37.2831C101.786 40.8961 108.164 46.2371 108.164 50.3528C108.164 54.7366 101.276 60.4276 90.0915 64.1473ZM85.4509 73.3764C86.5817 79.1086 86.7428 84.2915 85.9938 88.3435C85.3212 91.9843 83.9679 94.4114 82.2943 95.3838C78.7337 97.4525 71.1188 94.7636 62.9062 87.6706C61.9354 86.8304 60.988 85.9633 60.0651 85.0703C63.2492 81.5756 66.431 77.513 69.5365 73.0008C74.9989 72.5144 80.1594 71.7188 84.8392 70.633C85.0646 71.5425 85.2686 72.4572 85.4509 73.3764ZM38.521 95.0263C35.0421 96.2591 32.2712 96.2946 30.5962 95.3253C27.0321 93.2623 25.5504 85.298 27.5715 74.615C27.8117 73.3526 28.0868 72.0972 28.3964 70.8501C33.0246 71.8778 38.1476 72.6167 43.6228 73.0623C46.7494 77.4776 50.0231 81.5357 53.3223 85.0893C52.6212 85.7702 51.9034 86.4337 51.1698 87.0792C46.7856 90.9252 42.3927 93.6539 38.521 95.0263ZM22.223 64.1203C16.7133 62.2301 12.1633 59.7738 9.04455 57.0933C6.24185 54.6848 4.82726 52.2931 4.82726 50.3528C4.82726 46.2234 10.961 40.9563 21.1915 37.3766C22.4331 36.9424 23.7324 36.5327 25.0808 36.1482C26.495 40.764 28.3496 45.5903 30.5878 50.4707C28.3205 55.4232 26.4394 60.3266 25.0115 64.997C24.075 64.7277 23.1452 64.4354 22.223 64.1203ZM27.6862 26.7946C25.5628 15.903 26.973 7.687 30.522 5.62491C34.3019 3.42861 42.6606 6.56005 51.4708 14.4115C52.0453 14.9246 52.6105 15.4482 53.1661 15.9818C49.8832 19.5199 46.6395 23.548 43.5407 27.9371C38.2266 28.4314 33.1398 29.2252 28.463 30.2888C28.1749 29.131 27.9159 27.966 27.6862 26.795V26.7946ZM76.4254 38.8738C75.3207 36.9588 74.1751 35.0679 72.9893 33.2023C76.5944 33.6599 80.0486 34.2673 83.2922 35.0097C82.3185 38.1425 81.1048 41.4175 79.6761 44.7753C78.6317 42.7866 77.548 40.8191 76.4254 38.8738ZM56.5496 19.4442C58.7759 21.8651 61.0057 24.5677 63.1988 27.5003C58.7498 27.2894 54.2934 27.2885 49.8443 27.4976C52.0397 24.5921 54.2885 21.893 56.5496 19.4442ZM36.5463 38.9071C35.4377 40.8366 34.3742 42.7919 33.3565 44.7713C31.9512 41.4254 30.7485 38.1354 29.7664 34.9583C32.9902 34.2345 36.428 33.6427 40.0102 33.1935C38.8111 35.0704 37.6562 36.9753 36.5463 38.9066V38.9071ZM40.113 67.8569C36.4121 67.4422 32.9226 66.881 29.6998 66.1766C30.6973 62.9429 31.9265 59.5828 33.3623 56.1652C34.3839 58.1461 35.4519 60.1025 36.5653 62.033C37.7102 64.0175 38.8957 65.9613 40.113 67.8569ZM56.6829 81.6026C54.3948 79.1255 52.113 76.3847 49.8845 73.4371C52.0481 73.5222 54.2536 73.5656 56.4953 73.5656C58.7984 73.5656 61.075 73.5137 63.3158 73.4136C61.1156 76.4144 58.8942 79.1591 56.6829 81.6026ZM79.7215 55.9907C81.2319 59.4459 82.5048 62.7883 83.5155 65.9667C80.2397 66.7171 76.7026 67.3213 72.9756 67.77C74.1699 65.8699 75.3263 63.9461 76.4443 61.9998C77.581 60.0214 78.6737 58.0179 79.7215 55.9907ZM72.2633 59.5793C70.5517 62.5634 68.7439 65.4908 66.8428 68.357C63.399 68.6018 59.9477 68.7234 56.4953 68.7216C52.9789 68.7216 49.5588 68.6117 46.2653 68.3973C44.3145 65.5378 42.4722 62.6052 40.7424 59.6059H40.7428C39.0211 56.6224 37.413 53.5744 35.9218 50.4685C37.4092 47.3618 39.0125 44.3124 40.7283 41.3266L40.7278 41.3271C42.443 38.3406 44.2705 35.4206 46.2066 32.5733C49.5667 32.3181 53.0125 32.1853 56.4949 32.1853H56.4953C59.9936 32.1853 63.4438 32.3195 66.8031 32.5764C68.7195 35.4194 70.5354 38.3294 72.2474 41.3009C73.9689 44.2801 75.5934 47.3146 77.1183 50.3998C75.6091 53.5165 73.9897 56.5783 72.2633 59.5793ZM82.2206 5.4805C86.004 7.67061 87.4755 16.5023 85.0983 28.0841C84.9464 28.823 84.7761 29.5756 84.5907 30.3389C79.9025 29.2527 74.8122 28.4452 69.4826 27.9433C66.378 23.5059 63.1609 19.4717 59.9314 15.9792C60.7778 15.1603 61.6443 14.3627 62.5302 13.5871C70.8721 6.30135 78.6684 3.42462 82.2206 5.4805ZM56.4953 40.2263C62.0676 40.2263 66.585 44.7602 66.585 50.3528C66.585 55.9455 62.0676 60.4794 56.4953 60.4794C50.923 60.4794 46.4056 55.9455 46.4056 50.3528C46.4056 44.7602 50.923 40.2263 56.4953 40.2263Z"
              fill="#00D8FF"/>
    </g>
    <g id="logo">
        <svg xmlns="http://www.w3.org/2000/svg" version="1.1" xmlns:xlink="http://www.w3.org/1999/xlink"
             viewBox="0 0 200 200">
            <rect width="200" height="200" fill="url('#gradient')"></rect>
            <defs>
                <linearGradient id="gradient" gradientTransform="rotate(45 0.5 0.5)">
                    <stop offset="0%" stop-color="#429b84"></stop>
                    <stop offset="100%" stop-color="#506990"></stop>
                </linearGradient>
            </defs>
            <g>
                <g fill="#efe5e4"
                   transform="matrix(5.259581193204267,0,0,5.259581193204267,35.15025973052717,137.39499785239778)"
                   stroke="#edd7cf" stroke-width="0.05">
                    <path d="M9.98 0L9.15-2.66L4.45-2.66L3.63 0L-0.03 0L5.19-14.22L8.41-14.22L13.66 0L9.98 0ZM6.80-10.23L5.27-5.30L8.33-5.30L6.80-10.23ZM24.69-14.22L24.69-11.57L20.42-11.57L20.42 0L16.99 0L16.99-11.57L12.80-11.57L12.80-14.22L24.69-14.22Z"></path>
                </g>
            </g>
        </svg>
    </g>
    <g id="quote">
        <path d="M29.9 27.8C26.6333 27.8 24.2667 26.6333 22.8 24.3C22.1333 23.3 21.6 22.0667 21.2 20.6C20.8 19.1333 20.6 17.6 20.6 16C20.6 12.5333 21.4667 9.40001 23.2 6.60001C25 3.80001 27.6333 1.60001 31.1 6.4373e-06L32 1.80001C30.0667 2.60001 28.3667 3.83334 26.9 5.50001C25.5 7.16668 24.6667 8.86668 24.4 10.6C24.2 11.4 24.1 12.1667 24.1 12.9C24.1 13.5667 24.2 14.2 24.4 14.8C25.8667 13.2 27.8 12.4 30.2 12.4C32.5333 12.4 34.4333 13.1 35.9 14.5C37.3667 15.8333 38.1 17.7 38.1 20.1C38.1 22.3667 37.3333 24.2333 35.8 25.7C34.2667 27.1 32.3 27.8 29.9 27.8ZM9.3 27.8C6.03333 27.8 3.66667 26.6333 2.2 24.3C1.53333 23.3 0.999999 22.0667 0.599999 20.6C0.199999 19.1333 -1.17719e-06 17.6 -1.17719e-06 16C-1.17719e-06 12.5333 0.866665 9.40001 2.6 6.60001C4.4 3.80001 7.03333 1.60001 10.5 6.4373e-06L11.4 1.80001C9.46667 2.60001 7.76667 3.83334 6.3 5.50001C4.9 7.16668 4.06667 8.86668 3.8 10.6C3.6 11.4 3.5 12.1667 3.5 12.9C3.5 13.5667 3.6 14.2 3.8 14.8C5.26667 13.2 7.2 12.4 9.6 12.4C11.9333 12.4 13.8333 13.1 15.3 14.5C16.7667 15.8333 17.5 17.7 17.5 20.1C17.5 22.3667 16.7333 24.2333 15.2 25.7C13.6667 27.1 11.7 27.8 9.3 27.8Z"
              fill="white"/>
    </g>

    <!-- social -->
    <g id="telegram">
        <path d="M27.0082 6.80636L23.3864 23.8867C23.1129 25.092 22.4006 25.392 21.3882 24.8246L15.8693 20.7578L13.2067 23.3193C12.9119 23.6141 12.6658 23.8602 12.0975 23.8602L12.4944 18.2401L22.722 8.99831C23.1669 8.60227 22.6252 8.38196 22.0311 8.77886L9.38692 16.7408L3.94348 15.0367C2.75964 14.6672 2.73821 13.8528 4.19036 13.2845L25.4815 5.08161C26.4673 4.71214 27.3297 5.3002 27.0082 6.80636Z" fill="white"/>
    </g>
    <g id="instagram">
        <path d="M21.7209 0H8.27874C3.71384 0 0 3.71402 0 8.27892V21.7211C0 26.2862 3.71384 30 8.27874 30H21.7209C26.2862 30 30 26.286 30 21.7211V8.27892C30.0002 3.71402 26.2862 0 21.7209 0ZM27.3384 21.7211C27.3384 24.8185 24.8185 27.3383 21.7211 27.3383H8.27874C5.18153 27.3384 2.66175 24.8185 2.66175 21.7211V8.27892C2.66175 5.18171 5.18153 2.66175 8.27874 2.66175H21.7209C24.8183 2.66175 27.3383 5.18171 27.3383 8.27892V21.7211H27.3384Z"
              fill="white"/>
        <path d="M15 7.27014C10.7375 7.27014 7.26978 10.7379 7.26978 15.0004C7.26978 19.2627 10.7375 22.7303 15 22.7303C19.2625 22.7303 22.7303 19.2627 22.7303 15.0004C22.7303 10.7379 19.2625 7.27014 15 7.27014ZM15 20.0683C12.2054 20.0683 9.93152 17.7949 9.93152 15.0002C9.93152 12.2054 12.2052 9.93171 15 9.93171C17.7948 9.93171 20.0685 12.2054 20.0685 15.0002C20.0685 17.7949 17.7947 20.0683 15 20.0683Z"
              fill="white"/>
        <path d="M23.0545 5.01318C22.5417 5.01318 22.0379 5.2208 21.6757 5.58457C21.3118 5.94657 21.1025 6.45053 21.1025 6.96513C21.1025 7.47814 21.3119 7.98192 21.6757 8.34569C22.0377 8.70769 22.5417 8.91708 23.0545 8.91708C23.5691 8.91708 24.0713 8.70769 24.435 8.34569C24.7988 7.98192 25.0064 7.47796 25.0064 6.96513C25.0064 6.45053 24.7988 5.94657 24.435 5.58457C24.073 5.2208 23.5691 5.01318 23.0545 5.01318Z"
              fill="white"/>
    </g>
    <g id="facebook">
        <path d="M25.6055 0H4.39453C1.97159 0 0 1.97159 0 4.39453V25.6055C0 28.0284 1.97159 30 4.39453 30H13.2422V19.3945H9.72656V14.1211H13.2422V10.5469C13.2422 7.63893 15.6077 5.27344 18.5156 5.27344H23.8477V10.5469H18.5156V14.1211H23.8477L22.9688 19.3945H18.5156V30H25.6055C28.0284 30 30 28.0284 30 25.6055V4.39453C30 1.97159 28.0284 0 25.6055 0Z"
              fill="white"/>
    </g>
    <g id="telegram">
        <path d="M16.7521 1.28231L14.2169 13.2386C14.0254 14.0823 13.5268 14.2923 12.8181 13.8951L8.95489 11.0483L7.0911 12.8413C6.88467 13.0478 6.71245 13.22 6.31461 13.22L6.59244 9.28596L13.7518 2.81668C14.0632 2.53945 13.684 2.38523 13.2682 2.66306L4.41721 8.23645L0.606807 7.04352C-0.221881 6.7849 -0.236883 6.21484 0.779625 5.81699L15.6834 0.0749851C16.3735 -0.183642 16.9771 0.228001 16.7521 1.28231Z"
              fill="#1F1F20"/>
    </g>
</svg>
